<?xml version="1.0" standalone="no"?>
<!DOCTYPE svg PUBLIC "-//W3C//DTD SVG 1.1//EN" "http://www.w3.org/Graphics/SVG/1.1/DTD/svg11.dtd" >
<svg xmlns="http://www.w3.org/2000/svg">
<metadata>Generated by IcoMoon</metadata>
<defs>
<font id="icomoon" horiz-adv-x="1024">
<font-face units-per-em="1024" ascent="972.8" descent="-51.2" />
<missing-glyph horiz-adv-x="1024" />
<glyph unicode="&#x20;" horiz-adv-x="512" d="" />
<glyph unicode="&#xe900;" glyph-name="minus" d="M0 310.613v317.44h1024v-319.147h-1024z" />
<glyph unicode="&#xe901;" glyph-name="plus" d="M384-42.667v380.587h-384v262.827h384v380.587h256v-380.587h384v-262.827h-384v-380.587h-256z" />
<glyph unicode="&#xe902;" glyph-name="plus-circle" d="M512 878.933c225.28 0 409.6-184.32 409.6-409.6s-184.32-409.6-409.6-409.6-409.6 184.32-409.6 409.6 184.32 409.6 409.6 409.6zM512 981.333c-283.307 0-512-228.693-512-512s228.693-512 512-512 512 228.693 512 512-228.693 512-512 512v0zM802.133 366.933h-221.867v-204.8h-153.6v204.8h-221.867v170.667h221.867v221.867h153.6v-221.867h221.867z" />
<glyph unicode="&#xe903;" glyph-name="for-1-cinema-ticket" d="M230.4 604.16l52.907 39.253 39.253-54.613h653.653l-51.2 69.973c-44.373-32.427-107.52-22.187-139.947 22.187s-20.48 107.52 22.187 139.947l-112.64 160.427-542.72-392.533h88.747l-10.24 15.36zM686.080 935.253l39.253-54.613-52.907-39.253-39.253 54.613 52.907 39.253zM605.867 877.226l39.253-54.613-52.907-39.253-39.253 54.613 52.907 39.253zM525.653 817.493l39.253-54.613-54.613-37.547-39.253 54.613 54.613 37.547zM445.44 759.466l39.253-54.613-52.907-39.253-39.253 52.907 52.907 40.96zM365.227 701.44l39.253-54.613-52.907-39.253-39.253 54.613 52.907 39.253zM1003.52 354.986v199.68h-827.733v-199.68c54.613 0 98.987-44.373 98.987-98.987s-44.373-98.987-98.987-98.987v-199.68h829.44v199.68c-54.613 0-98.987 44.373-98.987 98.987s42.667 98.987 97.28 98.987zM274.773-10.24h-66.56v66.56h66.56v-66.56zM605.867 520.533h66.56v-66.56h-66.56v66.56zM506.88 520.533h66.56v-66.56h-66.56c0 0 0 66.56 0 66.56zM407.893 520.533h66.56v-66.56h-66.56v66.56zM274.773 453.973h-66.56v66.56h66.56v-66.56zM373.76-10.24h-66.56v66.56h66.56v-66.56zM373.76 453.973h-66.56v66.56h66.56v-66.56zM472.747-10.24h-66.56v66.56h66.56v-66.56zM573.44-10.24h-66.56v66.56h66.56v-66.56zM672.427-10.24h-66.56v66.56h66.56v-66.56zM592.213 168.96l-87.040-46.080 20.48 98.987-64.853 66.56 92.16 11.947 40.96 87.040 40.96-87.040 92.16-11.947-66.56-66.56 20.48-98.987-88.747 46.080zM771.413-10.24h-66.56v66.56h66.56v-66.56zM771.413 453.973h-66.56v66.56h66.56v-66.56zM872.107-10.24h-66.56v66.56h66.56v-66.56zM872.107 453.973h-66.56v66.56h66.56v-66.56zM971.093 56.32v-66.56h-66.56v66.56h66.56zM904.533 520.533h66.56v-66.56h-66.56v66.56zM129.707 344.746c3.413 1.707 8.533 3.413 11.947 5.12v107.52l-35.84-25.6-39.253 54.613 54.613 39.253 20.48-29.013v83.627l-122.88-87.040 110.933-148.48z" />
<glyph unicode="&#xe904;" glyph-name="g" d="M337.92 491.52v1.707c27.307 6.827 49.493 23.893 63.147 46.080 13.653 20.48 20.48 47.787 20.48 76.8 0 27.307-6.827 49.493-18.773 71.68-11.947 20.48-27.307 37.547-46.080 52.907-18.773 13.653-40.96 23.893-64.853 32.427-23.893 6.827-47.787 10.24-71.68 10.24-30.72 0-58.027-5.12-83.627-15.36s-46.080-23.893-64.853-42.667-32.427-40.96-40.96-64.853c-10.24-25.6-15.36-52.907-17.067-83.627h114.347c0 29.013 8.533 54.613 22.187 75.093 15.36 20.48 39.253 30.72 68.267 30.72 22.187 0 40.96-6.827 58.027-20.48s25.6-32.427 25.6-58.027c0-17.067-3.413-30.72-11.947-40.96s-18.773-18.773-32.427-23.893c-11.947-5.12-27.307-8.533-40.96-10.24-15.36-1.707-29.013-1.707-40.96 0v-85.333c15.36 0 30.72 0 46.080-1.707s30.72-3.413 44.373-10.24c13.653-5.12 23.893-13.653 34.133-25.6 8.533-11.947 11.947-29.013 11.947-52.907 0-29.013-10.24-52.907-29.013-68.267-17.067-15.36-39.253-23.893-66.56-23.893-18.773 0-32.427 3.413-46.080 10.24-11.947 6.827-23.893 15.36-32.427 25.6s-15.36 23.893-18.773 37.547c-3.413 15.36-6.827 29.013-6.827 46.080h-112.64c-1.707-35.84 3.413-66.56 15.36-92.16s25.6-49.493 44.373-68.267c18.773-18.773 42.667-34.133 69.973-42.667 27.307-10.24 58.027-15.36 92.16-15.36 29.013 0 58.027 3.413 83.627 11.947 27.307 8.533 49.493 20.48 71.68 37.547 20.48 17.067 37.547 37.547 49.493 61.44s18.773 52.907 18.773 83.627c0 34.133-10.24 63.147-29.013 88.747-17.067 23.893-44.373 37.547-78.507 46.080zM768 500.053v-100.693h134.827c-3.413-42.667-18.773-75.093-42.667-97.28s-58.027-34.133-102.4-34.133c-29.013 0-54.613 5.12-76.8 17.067-20.48 11.947-37.547 27.307-51.2 46.080-11.947 18.773-22.187 40.96-29.013 64.853s-8.533 49.493-8.533 75.093c0 27.307 3.413 52.907 8.533 76.8 6.827 25.6 15.36 47.787 29.013 66.56 11.947 18.773 29.013 35.84 51.2 46.080 20.48 11.947 46.080 17.067 76.8 17.067 32.427 0 59.733-8.533 83.627-25.6 22.187-17.067 37.547-42.667 46.080-76.8h128c-3.413 35.84-11.947 66.56-29.013 92.16-15.36 27.307-35.84 49.493-58.027 66.56-23.893 18.773-49.493 32.427-80.213 40.96s-59.733 13.653-92.16 13.653c-46.080 0-88.747-8.533-126.293-23.893-37.547-17.067-68.267-39.253-93.867-68.267s-46.080-63.147-58.027-102.4c-13.653-39.253-20.48-80.213-20.48-126.293 0-44.373 6.827-85.333 20.48-124.587 13.653-37.547 32.427-71.68 58.027-100.693s58.027-51.2 93.867-66.56c37.547-15.36 80.213-23.893 126.293-23.893 29.013 0 58.027 6.827 88.747 18.773 29.013 11.947 54.613 34.133 80.213 64.853l13.653-68.267h85.333v332.8h-256z" />
<glyph unicode="&#xe905;" glyph-name="g2" d="M366.933 762.88h-107.52l-259.413-348.16v-112.64h252.587v-138.24h116.053v139.947h78.507v100.693h-78.507l-1.707 358.4c1.707 0 0 0 0 0zM252.587 404.48h-158.72l155.307 208.213h1.707l1.707-208.213zM768 494.933v-100.693h134.827c-3.413-42.667-18.773-75.093-42.667-97.28s-58.027-34.133-102.4-34.133c-29.013 0-56.32 5.12-76.8 17.067s-37.547 27.307-51.2 46.080-22.187 40.96-29.013 64.853c-6.827 23.893-8.533 49.493-8.533 75.093 0 27.307 3.413 52.907 8.533 76.8 6.827 25.6 15.36 47.787 29.013 66.56s29.013 35.84 51.2 46.080c20.48 11.947 46.080 17.067 76.8 17.067 32.427 0 59.733-8.533 83.627-25.6 22.187-17.067 37.547-42.667 46.080-76.8h128c-3.413 35.84-11.947 66.56-29.013 92.16-15.36 27.307-35.84 49.493-58.027 66.56s-49.493 32.427-80.213 40.96c-29.013 10.24-59.733 13.653-92.16 13.653-46.080 0-88.747-8.533-126.293-23.893-37.547-17.067-68.267-39.253-93.867-68.267s-46.080-63.147-58.027-102.4c-13.653-39.253-20.48-80.213-20.48-126.293 0-44.373 6.827-85.333 20.48-124.587 13.653-37.547 32.427-71.68 58.027-100.693s58.027-51.2 93.867-66.56c37.547-15.36 78.507-23.893 124.587-23.893 29.013 0 59.733 5.12 88.747 18.773 29.013 11.947 54.613 34.133 80.213 64.853l11.947-68.267h87.040l1.707 332.8h-256z" />
<glyph unicode="&#xe906;" glyph-name="g-plus" d="M276.48 689.493h-81.92l-194.56-261.12v-85.333h189.44v-104.107h87.040v104.107h59.733v75.093h-59.733v271.36zM187.733 419.84h-117.76l116.053 157.013h1.707v-157.013zM576.853 413.013h100.693c-3.413-32.427-13.653-56.32-32.427-73.387s-44.373-25.6-76.8-25.6c-22.187 0-40.96 3.413-58.027 11.947s-29.013 20.48-37.547 35.84c-10.24 13.653-17.067 30.72-22.187 49.493s-6.827 37.547-6.827 56.32c0 20.48 1.707 39.253 6.827 58.027s11.947 35.84 22.187 49.493c10.24 13.653 22.187 25.6 37.547 35.84s35.84 11.947 58.027 11.947c23.893 0 44.373-6.827 61.44-18.773s29.013-32.427 34.133-58.027h95.573c-1.707 25.6-10.24 49.493-20.48 69.973-11.947 20.48-25.6 37.547-44.373 49.493-17.067 13.653-37.547 23.893-59.733 30.72s-44.373 10.24-68.267 10.24c-35.84 0-66.56-6.827-93.867-18.773s-51.2-29.013-71.68-51.2c-18.773-22.187-34.133-47.787-44.373-76.8s-15.36-61.44-15.36-95.573c0-34.133 5.12-64.853 15.36-93.867s23.893-54.613 44.373-75.093c18.773-22.187 42.667-37.547 71.68-49.493s59.733-18.773 93.867-18.773c22.187 0 44.373 3.413 66.56 13.653s40.96 25.6 59.733 49.493l10.24-51.2h64.853v247.467h-191.147v-73.387zM936.96 607.573v88.747h-58.027v-88.747h-87.040v-58.027h87.040v-87.040h58.027v87.040h87.040v58.027h-87.040z" />
<glyph unicode="&#xe907;" glyph-name="exclamation-message-important" d="M426.667 168.96h170.667v-204.8h-170.667v204.8zM549.547 271.36l47.787 411.307v257.707c0 27.307-6.827 46.080-35.84 46.080h-102.4c-27.307 0-32.427-18.773-32.427-46.080v-257.707l39.253-411.307h83.627z" />
<glyph unicode="&#xe908;" glyph-name="formatage-chiffres-gris" d="M215.040 98.986h808.96v170.667h-808.96v-170.667zM215.040 839.68h808.96v-170.667h-808.96v170.667zM215.040 554.666h808.96v-170.667h-808.96v170.667zM52.907 785.066v13.653c13.653 1.707 22.187 3.413 27.307 6.827s8.533 10.24 11.947 20.48h13.653v-143.36h-18.773v100.693h-34.133zM37.547 430.080c5.12 8.533 13.653 17.067 25.6 25.6l18.773 11.947c8.533 5.12 15.36 8.533 18.773 13.653 5.12 5.12 8.533 11.947 8.533 18.773 0 8.533-1.707 15.36-6.827 20.48s-11.947 6.827-20.48 6.827c-11.947 0-20.48-5.12-25.6-13.653-1.707-5.12-3.413-11.947-3.413-20.48h-18.773c0 11.947 1.707 22.187 6.827 30.72 8.533 13.653 22.187 20.48 40.96 20.48 17.067 0 29.013-5.12 35.84-13.653s11.947-18.773 11.947-29.013c0-11.947-3.413-20.48-11.947-29.013-5.12-5.12-13.653-10.24-25.6-17.067l-13.653-6.827c-6.827-3.413-11.947-6.827-15.36-10.24-6.827-5.12-10.24-11.947-11.947-18.773h78.507v-17.067h-98.987c0 6.827 3.413 17.067 6.827 27.307zM40.96 124.586c-6.827 8.533-11.947 20.48-11.947 34.133h18.773c0-8.533 1.707-15.36 5.12-20.48 5.12-6.827 13.653-11.947 25.6-11.947 10.24 0 17.067 1.707 22.187 6.827s8.533 11.947 8.533 18.773c0 10.24-3.413 17.067-8.533 20.48s-13.653 5.12-25.6 5.12c-1.707 0-1.707 0-3.413 0s-1.707 0-3.413 0v18.773c1.707 0 3.413 0 5.12 0s3.413 0 3.413 0c6.827 0 11.947 1.707 17.067 3.413 6.827 3.413 11.947 10.24 11.947 20.48 0 6.827-1.707 11.947-6.827 17.067s-10.24 5.12-17.067 5.12-20.48-3.413-25.6-11.947c-3.413-5.12-5.12-11.947-5.12-20.48h-17.067c0 10.24 1.707 20.48 6.827 27.307 6.827 13.653 20.48 20.48 39.253 20.48 15.36 0 25.6-3.413 34.133-10.24s11.947-15.36 11.947-29.013c0-8.533-1.707-15.36-6.827-22.187-3.413-3.413-6.827-6.827-11.947-8.533 6.827-1.707 13.653-6.827 17.067-11.947s6.827-13.653 6.827-22.187c0-13.653-5.12-25.6-13.653-34.133s-22.187-8.533-39.253-8.533c-17.067 0-29.013 5.12-37.547 13.653z" />
<glyph unicode="&#xe909;" glyph-name="address-book-edit-contact-dark" horiz-adv-x="1173" d="M306.809 754.646c-52.763 0-97.71-42.992-97.71-97.71 0-52.763 42.992-97.71 97.71-97.71 52.763 0 97.71 42.992 97.71 97.71s-42.992 97.71-97.71 97.71zM1037.679 395.073c-60.58-60.58-132.885-132.885-193.466-193.466-1.954-1.954-3.908-3.908-5.863-5.863-5.863-5.863-9.771-9.771-13.679-13.679-31.267-31.267-58.626-58.626-74.26-74.26h347.847v345.893c-17.588-17.588-37.13-37.13-60.58-58.626v0zM619.481 193.791l3.908 5.863 193.466 195.42 261.863 261.863 21.496-21.496v248.183c3.908 52.763-41.038 97.71-93.802 97.71h-1006.412v-777.771c0-52.763 42.992-97.71 97.71-97.71h469.008l42.992 74.26 9.771 13.679zM648.794 821.089h324.397c17.588 0 33.221-13.679 33.221-33.221s-13.679-33.221-33.221-33.221h-324.397c-17.588 0-33.221 13.679-33.221 33.221s13.679 33.221 33.221 33.221zM648.794 656.936h324.397c17.588 0 33.221-13.679 33.221-33.221 0-17.588-13.679-33.221-33.221-33.221h-324.397c-17.588 0-33.221 13.679-33.221 33.221s13.679 33.221 33.221 33.221zM648.794 496.692h158.29c17.588 0 33.221-13.679 33.221-33.221 0-17.588-13.679-33.221-33.221-33.221h-158.29c-17.588 0-33.221 13.679-33.221 33.221 0 17.588 13.679 33.221 33.221 33.221zM519.817 397.028c0-17.588-13.679-33.221-33.221-33.221h-33.221v13.679c0 1.954 0 1.954 0 3.908 0 80.122-66.443 146.565-146.565 146.565s-146.565-66.443-146.565-146.565c0-1.954 0-1.954 0-3.908v-13.679h-29.313c-17.588 0-33.221 13.679-33.221 33.221v390.84c0 17.588 13.679 33.221 33.221 33.221h355.664c17.588 0 33.221-13.679 33.221-33.221v-390.84zM578.443 8.142l146.565 76.214 5.863 1.954 3.908 3.908c1.954 1.954 7.817 7.817 15.634 15.634h-42.992l-138.748-72.305 39.084 72.305h-41.038l-31.267-54.718-48.855-91.847h3.908l87.939 48.855zM490.504-38.759h-3.908l-1.954-3.908zM1129.527 555.318v0c11.725-9.771 11.725-17.588 5.863-23.45l-37.13-37.13v-41.038c33.221 33.221 54.718 54.718 54.718 54.718l1.954 1.954c13.679 5.863 17.588 17.588 15.634 31.267 0 11.725-5.863 23.45-13.679 35.176l-19.542 17.588-39.084 39.084v-46.901l31.267-31.267zM646.84 180.112l355.664 355.664 5.863-5.863 52.763-50.809c3.908-3.908 5.863-7.817 5.863-11.725s-1.954-7.817-5.863-11.725c-17.588-17.588-39.084-39.084-62.534-62.534-68.397-68.397-152.427-152.427-214.962-214.962-29.313-29.313-54.718-54.718-70.351-70.351l-7.817-3.908h42.992c15.634 15.634 42.992 42.992 74.26 74.26 5.863 5.863 9.771 9.771 13.679 13.679 1.954 1.954 3.908 3.908 5.863 5.863 60.58 60.58 132.885 132.885 193.466 193.466l1.954 1.954c21.496 21.496 41.038 41.038 58.626 58.626v41.038l-1.954-3.908-42.992 41.038-29.313 27.359 52.763 52.763 23.45-23.45v46.901l-21.496 21.496-259.908-259.908h-1.954l-191.511-195.42-3.908-5.863-9.771-13.679-42.992-74.26h41.038l39.084 74.26z" />
<glyph unicode="&#xe90a;" glyph-name="toolbar-deplacer-evenement" d="M931.84 849.92h-121.173v46.080c0 25.6-20.48 46.080-46.080 46.080s-46.080-20.48-46.080-46.080v-46.080h-336.213v46.080c0 25.6-20.48 46.080-46.080 46.080s-46.080-20.48-46.080-46.080v-46.080h-211.627v-392.533h59.733v119.467h182.613v-121.173l10.24-10.24 20.48-18.773v150.187h182.613v-153.6h-179.2l30.72-30.72h148.48v-153.6h-174.080l-17.067-15.36-22.187-22.187v-145.067h-136.533c-25.6 0-46.080 20.48-46.080 46.080v97.28l-59.733-1.707v-110.933c0-51.2 40.96-92.16 92.16-92.16h853.333v764.587c-1.707 49.493-42.667 90.453-92.16 90.453zM337.92 667.306c-42.667 0-75.093 34.133-75.093 75.093 0 25.6 11.947 47.787 30.72 61.44v-61.44c0-25.6 20.48-46.080 46.080-46.080s46.080 20.48 46.080 46.080v63.147c18.773-13.653 30.72-35.84 30.72-61.44-3.413-42.667-37.547-76.8-78.507-76.8zM534.187 58.026h-182.613v151.893h182.613v-151.893zM747.52 58.026h-182.613v151.893h182.613v-151.893zM747.52 240.64h-182.613v153.6h182.613v-153.6zM747.52 423.253h-182.613v153.6h182.613v-153.6zM687.787 744.106c0 25.6 11.947 47.787 30.72 61.44v-61.44c0-25.6 20.48-46.080 46.080-46.080s46.080 20.48 46.080 46.080v61.44c18.773-13.653 30.72-35.84 30.72-61.44 0-42.667-34.133-75.093-75.093-75.093-44.373-1.707-78.507 34.133-78.507 75.093zM960.853 240.64h-182.613v153.6h182.613v-153.6zM960.853 423.253h-182.613v153.6h136.533c25.6 0 46.080-20.48 46.080-46.080v-107.52zM221.867 233.813v-83.627l59.733 59.733 32.427 30.72 6.827 6.827 30.72 29.013 25.6 23.893c8.533 8.533 11.947 17.067 11.947 29.013 0 10.24-5.12 20.48-11.947 29.013l-25.6 23.893-40.96 40.96-87.040 85.333v-83.627h-180.907c-23.893 0-42.667-17.067-42.667-42.667v-110.933c0-22.187 17.067-40.96 42.667-40.96h35.84l143.36 3.413z" />
<glyph unicode="&#xe90b;" glyph-name="pj-calendar" d="M716.8 740.693h187.733l-242.347 240.64v-180.907c0-32.427 23.893-59.733 54.613-59.733zM404.48 192.853h98.987v-81.92h-98.987v81.92zM404.48 291.84h98.987v-81.92h-98.987v81.92zM288.427 134.826c0-13.653 10.24-25.6 23.893-25.6h75.093v81.92h-98.987v-56.32zM404.48 390.826h98.987v-83.627h-98.987v83.627zM288.427 291.84h98.987v-81.92h-98.987v81.92zM288.427 390.826h98.987v-83.627h-98.987v83.627zM436.907 481.28c0 13.653-5.12 25.6-15.36 34.133v-34.133c0-13.653-11.947-25.6-25.6-25.6s-25.6 11.947-25.6 25.6v34.133c-8.533-8.533-17.067-20.48-17.067-34.133 0-22.187 17.067-40.96 40.96-40.96s42.667 17.067 42.667 40.96zM634.88 390.826v-83.627h98.987v59.733c0 13.653-11.947 25.6-25.6 25.6h-73.387zM634.88 291.84h98.987v-81.92h-98.987v81.92zM600.747 800.426v180.907h-481.28v-964.267c0-32.427 27.307-59.733 59.733-59.733h725.333v723.627h-180.907c-66.56 0-122.88 52.907-122.88 119.467zM768 489.813v-413.013h-462.507c-27.307 0-49.493 22.187-49.493 49.493v413.013h116.053v25.6c0 13.653 11.947 25.6 25.6 25.6s25.6-11.947 25.6-25.6v-27.307h180.907v25.6c0 13.653 11.947 25.6 25.6 25.6s25.6-11.947 25.6-25.6v-25.6h61.44c29.013 1.707 51.2-20.48 51.2-47.787zM520.533 291.84h98.987v-81.92h-98.987v81.92zM520.533 192.853h98.987v-81.92h-98.987v81.92zM669.013 481.28c0 13.653-6.827 25.6-17.067 34.133v-34.133c0-13.653-11.947-25.6-25.6-25.6s-25.6 11.947-25.6 25.6v34.133c-8.533-8.533-17.067-20.48-17.067-34.133 0-22.187 18.773-40.96 40.96-40.96 23.893 0 44.373 17.067 44.373 40.96zM520.533 390.826h98.987v-83.627h-98.987v83.627z" />
<glyph unicode="&#xe90c;" glyph-name="reseau" d="M512 965.973c-283.307 0-512-182.613-512-406.187 0-174.080 138.24-322.56 331.093-380.587v-206.507l180.907 180.907c283.307 0 512 182.613 512 406.187s-228.693 406.187-512 406.187zM721.92 363.52h-421.547c-32.427 0-59.733 27.307-59.733 59.733 0 11.947 3.413 22.187 8.533 29.013v0 1.707l209.92 361.813c10.24 18.773 29.013 29.013 51.2 29.013s40.96-11.947 51.2-29.013v0l209.92-361.813c5.12-8.533 8.533-20.48 8.533-29.013 3.413-34.133-23.893-61.44-58.027-61.44zM512 484.693c-17.067 0-29.013-13.653-29.013-29.013 0-17.067 13.653-29.013 29.013-29.013 17.067 0 29.013 13.653 29.013 29.013s-11.947 29.013-29.013 29.013zM512 725.333c-17.067 0-29.013-13.653-29.013-29.013v-1.707l10.24-163.84c0-11.947 8.533-15.36 20.48-15.36s20.48 5.12 20.48 15.36v0l10.24 163.84v1.707c-3.413 15.36-15.36 29.013-32.427 29.013z" />
<glyph unicode="&#xe90d;" glyph-name="about-event" d="M933.547 873.813h-131.413v49.493c0 27.307-22.187 49.493-49.493 49.493s-49.493-22.187-49.493-49.493v-165.547c0-27.307 22.187-49.493 49.493-49.493s49.493 22.187 49.493 49.493v66.56c20.48-15.36 32.427-39.253 32.427-66.56 0-46.080-37.547-81.92-81.92-81.92s-81.92 37.547-81.92 81.92c0 27.307 13.653 51.2 32.427 66.56v49.493h-363.52v49.493c0 27.307-22.187 49.493-49.493 49.493s-49.493-22.187-49.493-49.493v-165.547c0-27.307 22.187-49.493 49.493-49.493s49.493 22.187 49.493 49.493v66.56c20.48-15.36 32.427-39.253 32.427-66.56 0-46.080-37.547-81.92-81.92-81.92-46.080 0-81.92 37.547-81.92 81.92 0 27.307 13.653 51.2 32.427 66.56v49.493h-230.4v-826.027c0-54.613 44.373-98.987 98.987-98.987h925.013v826.027c-1.707 54.613-46.080 98.987-100.693 98.987zM965.973 15.36h-843.093c-27.307 0-49.493 22.187-49.493 49.493v512h843.093c27.307 0 49.493-22.187 49.493-49.493v-512zM520.533 510.293c-117.76 0-215.040-95.573-215.040-215.040 0-117.76 95.573-215.040 215.040-215.040s215.040 95.573 215.040 215.040c0 119.467-97.28 215.040-215.040 215.040zM498.347 447.146c6.827 6.827 15.36 10.24 25.6 10.24s18.773-3.413 25.6-10.24 10.24-15.36 10.24-25.6-3.413-18.773-10.24-25.6-15.36-10.24-25.6-10.24-18.773 3.413-25.6 10.24-10.24 15.36-10.24 25.6c0 10.24 3.413 18.773 10.24 25.6zM587.093 153.6h-116.053v11.947h1.707c5.12 0 8.533 1.707 11.947 1.707 1.707 1.707 5.12 1.707 6.827 5.12 1.707 1.707 3.413 6.827 3.413 23.893v116.053c0 17.067-3.413 22.187-5.12 25.6-1.707 1.707-3.413 3.413-5.12 3.413-3.413 1.707-6.827 1.707-11.947 1.707h-1.707v13.653h92.16v-160.427c0-17.067 1.707-22.187 5.12-25.6s8.533-5.12 17.067-5.12h3.413v-11.947h-1.707z" />
<glyph unicode="&#xe90e;" glyph-name="accessability" d="M512 983.040c-285.013 0-513.707-228.693-513.707-513.707 0-15.36 0-30.72 1.707-46.080 10.24-110.933 54.613-209.92 122.88-290.133 3.413-3.413 5.12-6.827 8.533-8.533 39.253-42.667 83.627-78.507 134.827-105.813 3.413-1.707 6.827-3.413 10.24-5.12 8.533-5.12 18.773-8.533 27.307-13.653 1.707 0 3.413-1.707 5.12-1.707 13.653-5.12 27.307-10.24 40.96-15.36 1.707 0 3.413-1.707 6.827-1.707 22.187-6.827 44.373-11.947 68.267-15.36 3.413 0 8.533-1.707 11.947-1.707 8.533-1.707 17.067-1.707 25.6-3.413 15.36-1.707 30.72-1.707 46.080-1.707s30.72 0 46.080 1.707c8.533 0 17.067 1.707 25.6 3.413 3.413 0 8.533 1.707 11.947 1.707 23.893 3.413 46.080 8.533 68.267 15.36 1.707 0 3.413 1.707 6.827 1.707 13.653 5.12 27.307 10.24 40.96 15.36 1.707 0 3.413 1.707 5.12 1.707 10.24 3.413 18.773 8.533 27.307 13.653 3.413 1.707 6.827 3.413 10.24 5.12 51.2 27.307 95.573 63.147 134.827 105.813 3.413 3.413 5.12 6.827 8.533 8.533 68.267 78.507 112.64 179.2 122.88 290.133 1.707 15.36 1.707 30.72 1.707 46.080 6.827 285.013-221.867 513.707-506.88 513.707zM633.173 469.333v-273.067h-90.453v180.907h-59.733v-180.907h-90.453v273.067h-302.080c0 56.32 11.947 112.64 32.427 163.84 20.48 49.493 51.2 95.573 90.453 134.827s83.627 69.973 134.827 90.453c51.2 22.187 107.52 32.427 163.84 32.427s112.64-11.947 163.84-32.427c49.493-20.48 95.573-51.2 134.827-90.453s69.973-83.627 90.453-134.827c22.187-51.2 32.427-107.52 32.427-163.84h-300.373zM512 619.52v0c-66.56 0-121.173-54.613-121.173-121.173v-30.72h240.64v30.72c1.707 68.267-52.907 121.173-119.467 121.173zM512 832.853c-49.493 0-90.453-40.96-90.453-90.453s40.96-90.453 90.453-90.453 90.453 40.96 90.453 90.453-40.96 90.453-90.453 90.453z" />
<glyph unicode="&#xe90f;" glyph-name="accessibility-cognition" d="M921.6 409.6l-90.453 128v90.453c-6.827 196.267-168.96 354.987-366.933 354.987-203.093 0-366.933-163.84-366.933-366.933 0-78.507 23.893-151.893 66.56-211.627 15.36-34.133 23.893-73.387 23.893-112.64 0-3.413 0-6.827 0-10.24v0-259.413c0-35.84 29.013-64.853 64.853-64.853h360.107v160.427h155.307c35.84 0 64.853 29.013 64.853 64.853v174.080h64.853c17.067 0 32.427 13.653 32.427 32.427-1.707 6.827-5.12 13.653-8.533 20.48zM740.693 677.546c0-61.44-49.493-112.64-112.64-112.64-15.36 0-30.72 3.413-44.373 8.533-10.24 3.413-20.48 5.12-30.72 5.12-37.547 0-71.68-18.773-92.16-47.787v0c-27.307-44.373-76.8-75.093-133.12-75.093-81.92 0-148.48 61.44-155.307 141.653-1.707 13.653-3.413 27.307-3.413 40.96s1.707 25.6 3.413 37.547v0c22.187 114.347 110.933 204.8 225.28 226.987 20.48 5.12 42.667 8.533 66.56 8.533 116.053 0 216.747-69.973 261.12-170.667 1.707-3.413 3.413-8.533 5.12-13.653 5.12-13.653 8.533-30.72 8.533-46.080l1.707-3.413c0 1.707 0 1.707 0 0 0 1.707 0 0 0 0v0z" />
<glyph unicode="&#xe910;" glyph-name="accessibility-dexterity" d="M1022.293 232.106l-107.52 107.52c22.187 107.52-8.533 223.573-92.16 305.493v0 0l-215.040 215.040c-25.6 25.6-68.267 25.6-95.573 0-25.6-25.6-25.6-68.267 0-95.573l119.467-119.467c5.12-6.827 5.12-15.36-1.707-22.187s-15.36-6.827-22.187-1.707v0 0 0 0l-343.040 343.040c-20.48 20.48-51.2 20.48-71.68 0s-20.48-51.2 0-71.68l273.067-273.067c6.827-6.827 6.827-17.067 0-23.893s-17.067-6.827-23.893 0v0l-319.147 319.147c-20.48 20.48-51.2 20.48-71.68 0s-20.48-51.2 0-71.68l319.147-319.147c6.827-6.827 6.827-17.067 0-23.893s-17.067-6.827-23.893 0v0 0l-273.067 273.067c-20.48 20.48-51.2 20.48-71.68 0s-20.48-51.2 0-71.68l320.853-320.853c0 0 1.707 0 1.707-1.707 6.827-6.827 6.827-17.067 0-23.893s-17.067-6.827-23.893 0c0 0 0 1.707-1.707 1.707v0l-174.080 180.907c-20.48 20.48-51.2 20.48-71.68 0s-20.48-51.2 0-71.68l298.667-298.667c81.92-81.92 196.267-112.64 300.373-92.16l109.227-109.227c15.36-15.36 37.547-15.36 52.907 0l209.92 209.92c11.947 17.067 11.947 40.96-1.707 56.32z" />
<glyph unicode="&#xe911;" glyph-name="accessibility-hearing" d="M640 513.706c20.48-10.24 44.373-1.707 52.907 18.773 13.653 27.307 20.48 58.027 20.48 90.453 0 112.64-90.453 203.093-203.093 203.093s-203.093-90.453-203.093-203.093c0-23.893 3.413-47.787 11.947-69.973v0c6.827-15.36 10.24-34.133 10.24-52.907s-3.413-35.84-11.947-52.907v0c-5.12-13.653-8.533-27.307-8.533-42.667 0-61.44 49.493-110.933 110.933-110.933s110.933 49.493 110.933 110.933c0 44.373-27.307 83.627-64.853 100.693 0 0-1.707 0-1.707 1.707v0 0c-22.187 8.533-42.667 23.893-56.32 44.373s-22.187 44.373-22.187 69.973c0 68.267 54.613 122.88 122.88 122.88s122.88-54.613 122.88-122.88c0-18.773-3.413-37.547-11.947-54.613-8.533-18.773 0-42.667 20.48-52.907zM754.347 877.226c-66.56 66.56-157.013 104.107-252.587 104.107-69.973 0-136.533-20.48-194.56-58.027-56.32-35.84-100.693-88.747-129.707-148.48-8.533-20.48 0-44.373 18.773-52.907 20.48-8.533 44.373 0 52.907 18.773 22.187 47.787 56.32 87.040 100.693 116.053s97.28 44.373 150.187 44.373c151.893 0 276.48-124.587 276.48-276.48 0-52.907-15.36-104.107-42.667-148.48l-307.2-402.773c-18.773-22.187-47.787-35.84-78.507-35.84-56.32 0-102.4 46.080-102.4 102.4v76.8c0 22.187-17.067 39.253-39.253 39.253s-39.253-17.067-39.253-39.253v-76.8c0-100.693 81.92-182.613 182.613-182.613 54.613 0 107.52 23.893 141.653 66.56 1.707 1.707 1.707 1.707 1.707 3.413l308.907 401.067c0 0 0 1.707 1.707 1.707v0 0 0c37.547 58.027 56.32 124.587 56.32 192.853 0 97.28-37.547 186.027-105.813 254.293z" />
<glyph unicode="&#xe912;" glyph-name="accessibility-mobility" d="M430.080 732.16c68.267 0 124.587 56.32 124.587 124.587s-56.32 124.587-124.587 124.587-124.587-56.32-124.587-124.587c0-69.973 56.32-124.587 124.587-124.587zM595.627 104.106c-46.080-46.080-107.52-71.68-172.373-71.68s-126.293 25.6-172.373 71.68-71.68 107.52-71.68 172.373 25.6 126.293 71.68 172.373c15.36 15.36 34.133 29.013 52.907 40.96v81.92c-117.76-47.787-199.68-162.133-199.68-295.253 0-175.787 143.36-319.147 319.147-319.147 124.587 0 232.107 71.68 285.013 175.787l-49.493 80.213c-10.24-40.96-32.427-78.507-63.147-109.227zM732.16 390.826c-11.947 18.773-32.427 29.013-52.907 29.013v0 0 0h-155.307v87.040h162.133c23.893 0 44.373 18.773 44.373 44.373s-18.773 44.373-44.373 44.373h-162.133v10.24c0 51.2-42.667 93.867-93.867 93.867s-93.867-42.667-93.867-93.867v-218.453c0-51.2 42.667-93.867 93.867-93.867h215.040l138.24-220.16c11.947-18.773 32.427-29.013 52.907-29.013 11.947 0 22.187 3.413 32.427 10.24 1.707 0 52.907 32.427 52.907 32.427l-189.44 303.787z" />
<glyph unicode="&#xe913;" glyph-name="accessibility-speech" d="M692.907 725.333c-52.907 0-104.107-25.6-146.773-58.027-10.24-5.12-22.187-10.24-34.133-10.24s-23.893 3.413-35.84 10.24c-42.667 32.427-92.16 58.027-146.773 58.027-139.947 0-245.76-112.64-329.387-235.52 69.973-133.12 285.013-276.48 498.347-276.48 3.413 0 10.24 0 13.653 0s10.24 0 13.653 0c213.333 0 428.373 143.36 498.347 276.48-85.333 122.88-191.147 235.52-331.093 235.52zM512 411.306c-189.44 0-314.027 47.787-314.027 69.973s124.587 69.973 314.027 69.973 312.32-47.787 312.32-69.973-124.587-69.973-312.32-69.973z" />
<glyph unicode="&#xe914;" glyph-name="accessibility-vision" d="M527.36 754.346c-5.12 0-10.24 0-13.653 0s-10.24 0-13.653 0c-213.333 0-428.373-151.893-498.347-285.013 69.973-133.12 283.307-285.013 496.64-285.013 5.12 0 10.24 0 13.653 0s10.24 0 13.653 0c213.333 0 430.080 150.187 500.053 285.013-71.68 133.12-285.013 285.013-498.347 285.013zM230.4 336.213c-63.147 37.547-116.053 87.040-150.187 133.12 34.133 47.787 88.747 95.573 150.187 133.12 20.48 11.947 40.96 23.893 63.147 34.133-13.653-18.773-27.307-39.253-35.84-61.44-13.653-34.133-22.187-69.973-22.187-105.813 0-37.547 6.827-73.387 22.187-105.813 10.24-22.187 22.187-44.373 37.547-63.147-20.48 10.24-42.667 22.187-64.853 35.84zM510.293 264.533c-112.64 0-204.8 92.16-204.8 204.8s92.16 204.8 204.8 204.8 204.8-92.16 204.8-204.8c0-112.64-90.453-204.8-204.8-204.8zM793.6 336.213c-22.187-13.653-46.080-25.6-68.267-35.84 15.36 18.773 29.013 40.96 37.547 63.147 13.653 34.133 22.187 69.973 22.187 105.813 0 37.547-6.827 73.387-22.187 105.813-10.24 23.893-22.187 46.080-39.253 64.853 23.893-10.24 47.787-22.187 69.973-37.547 63.147-37.547 116.053-87.040 150.187-133.12-32.427-47.787-87.040-95.573-150.187-133.12zM570.027 479.573c-30.72 0-54.613 23.893-54.613 54.613 0 23.893 15.36 44.373 37.547 52.907-13.653 5.12-27.307 6.827-40.96 6.827-69.973 0-124.587-56.32-124.587-124.587 0-69.973 56.32-124.587 124.587-124.587 69.973 0 124.587 56.32 124.587 124.587 0 18.773-5.12 37.547-11.947 52.907-5.12-23.893-27.307-42.667-54.613-42.667z" />
<glyph unicode="&#xe915;" glyph-name="accessory-headphones" d="M955.733 346.453v-307.2c40.96 37.547 68.267 92.16 68.267 153.6s-25.6 116.053-68.267 153.6zM1.707 192.853c0-59.733 27.307-116.053 68.267-153.6v307.2c-44.373-37.547-68.267-92.16-68.267-153.6zM512 947.2c-225.28 0-409.6-184.32-409.6-409.6v-518.827c30.72-17.067 64.853-27.307 102.4-27.307v0c37.547 0 68.267 30.72 68.267 68.267v273.067c0 37.547-30.72 68.267-68.267 68.267h-34.133v136.533c0 46.080 10.24 90.453 27.307 131.413s40.96 76.8 73.387 107.52 68.267 56.32 107.52 73.387c40.96 17.067 85.333 27.307 131.413 27.307s90.453-10.24 131.413-27.307c40.96-17.067 76.8-40.96 107.52-73.387 32.427-32.427 56.32-68.267 73.387-107.52 17.067-40.96 27.307-85.333 27.307-131.413v-136.533h-34.133c-37.547 0-68.267-30.72-68.267-68.267v-273.067c0-37.547 30.72-68.267 68.267-68.267v0c35.84 0 71.68 10.24 102.4 27.307v518.827c3.413 225.28-180.907 409.6-406.187 409.6z" />
<glyph unicode="&#xe916;" glyph-name="accessory-shop" d="M723.627 769.706v0c-1.707 116.053-95.573 211.627-211.627 211.627s-211.627-95.573-211.627-211.627h-179.2v-723.627c0-49.493 40.96-90.453 90.453-90.453h602.453c49.493 0 90.453 40.96 90.453 90.453v723.627h-180.907zM406.187 877.226c29.013 29.013 66.56 44.373 105.813 44.373s78.507-15.36 105.813-44.373c29.013-29.013 44.373-66.56 44.373-105.813h-300.373c0 39.253 15.36 76.8 44.373 105.813zM271.36 650.24c0 22.187 11.947 40.96 30.72 52.907v-52.907c0-17.067 13.653-30.72 30.72-30.72s30.72 13.653 30.72 30.72v52.907c18.773-10.24 30.72-29.013 30.72-52.907 0-32.427-27.307-59.733-59.733-59.733-35.84 0-63.147 25.6-63.147 59.733zM319.147 129.706c-18.773 17.067-30.72 42.667-30.72 69.973s11.947 49.493 30.72 66.56v-136.533zM692.907 119.466c-18.773-11.947-47.787-11.947-47.787-11.947-17.067 0-30.72 13.653-30.72 30.72v121.173c0 17.067 13.653 30.72 30.72 30.72h18.773v59.733c0 20.48-3.413 39.253-11.947 58.027-6.827 18.773-18.773 34.133-32.427 47.787s-30.72 25.6-47.787 32.427c-18.773 8.533-37.547 11.947-58.027 11.947s-39.253-3.413-58.027-11.947c-18.773-6.827-34.133-18.773-47.787-32.427s-25.6-30.72-32.427-47.787c-8.533-18.773-11.947-37.547-11.947-58.027v-59.733h18.773c17.067 0 30.72-13.653 30.72-30.72v-121.173c0-17.067-13.653-30.72-30.72-30.72 0 0-30.72 0-47.787 11.947v228.693c0 98.987 81.92 180.907 180.907 180.907s180.907-81.92 180.907-180.907v-228.693h-3.413zM704.853 129.706v134.827c18.773-17.067 30.72-39.253 30.72-66.56s-11.947-51.2-30.72-68.267zM692.907 590.506c-32.427 0-59.733 27.307-59.733 59.733 0 22.187 11.947 40.96 30.72 52.907v-52.907c0-17.067 13.653-30.72 30.72-30.72s30.72 13.653 30.72 30.72v0 52.907c18.773-10.24 30.72-29.013 30.72-52.907-3.413-34.133-30.72-59.733-63.147-59.733z" />
<glyph unicode="&#xe917;" glyph-name="add" d="M957.44 597.333h-317.44v317.44c0 35.84-29.013 64.853-64.853 64.853h-128c-35.84 0-64.853-29.013-64.853-64.853v-319.147h-315.733c-35.84 0-64.853-29.013-64.853-64.853v-128c0-35.84 29.013-64.853 64.853-64.853h319.147v-319.147c0-35.84 29.013-64.853 64.853-64.853h128c35.84 0 64.853 29.013 64.853 64.853v322.56h319.147c35.84 0 64.853 29.013 64.853 64.853v128c-5.12 34.133-34.133 63.147-69.973 63.147z" />
<glyph unicode="&#xe918;" glyph-name="add2" d="M512 981.333c-283.307 0-512-228.693-512-512s228.693-512 512-512 512 228.693 512 512-228.693 512-512 512zM802.133 366.933h-221.867v-204.8h-153.6v204.8h-221.867v170.667h221.867v221.867h153.6v-221.867h221.867v-170.667z" />
<glyph unicode="&#xe919;" glyph-name="add-calendar" d="M662.187 547.84c-11.947 13.653-23.893 23.893-40.96 30.72-15.36 5.12-32.427 8.533-49.493 8.533s-34.133-3.413-47.787-8.533c-15.36-5.12-29.013-15.36-40.96-30.72-11.947-13.653-20.48-34.133-27.307-56.32-6.827-23.893-10.24-52.907-10.24-85.333 0-34.133 3.413-63.147 10.24-88.747 6.827-23.893 15.36-42.667 27.307-56.32s23.893-23.893 40.96-30.72c15.36-5.12 32.427-8.533 47.787-8.533 17.067 0 34.133 3.413 49.493 8.533s29.013 15.36 40.96 30.72c11.947 13.653 20.48 34.133 27.307 56.32 6.827 23.893 10.24 52.907 10.24 88.747 0 34.133-3.413 63.147-10.24 85.333-6.827 23.893-15.36 42.667-27.307 56.32zM629.76 370.346c0-13.653-3.413-27.307-5.12-40.96-3.413-13.653-8.533-23.893-17.067-34.133-6.827-8.533-18.773-13.653-34.133-13.653s-23.893 5.12-32.427 13.653c-6.827 8.533-13.653 20.48-15.36 34.133-3.413 13.653-5.12 27.307-5.12 40.96s-1.707 25.6-1.707 35.84c0 5.12 0 13.653 0 22.187s1.707 17.067 1.707 25.6c1.707 8.533 3.413 17.067 5.12 27.307 3.413 8.533 5.12 17.067 10.24 23.893s8.533 13.653 15.36 17.067c5.12 5.12 13.653 5.12 23.893 5.12s17.067-3.413 23.893-5.12c6.827-5.12 11.947-10.24 15.36-17.067 5.12-6.827 6.827-13.653 10.24-23.893 1.707-8.533 5.12-17.067 5.12-27.307 1.707-8.533 1.707-17.067 1.707-25.6s0-15.36 0-22.187c0-10.24 0-22.187-1.707-35.84zM663.893 167.253h-568.32c-23.893 0-42.667 18.773-42.667 42.667 0 1.707 0 3.413 0 5.12v428.373h716.8c18.773 0 40.96-17.067 42.667-39.253v-286.72c10.24 1.707 20.48 3.413 30.72 3.413 8.533 0 18.773-1.707 27.307-1.707v493.227c-1.707 46.080-39.253 83.627-85.333 83.627h-110.933v42.667c0 23.893-18.773 42.667-42.667 42.667s-42.667-18.773-42.667-42.667v-42.667h-308.907v42.667c0 23.893-18.773 42.667-42.667 42.667s-42.667-18.773-42.667-42.667v-42.667h-194.56v-701.44c0-46.080 37.547-83.627 83.627-83.627h580.267c-1.707 10.24-1.707 18.773-1.707 29.013 0 8.533 0 18.773 1.707 27.307zM588.8 853.333v-56.32c0-23.893 18.773-42.667 42.667-42.667s42.667 18.773 42.667 42.667v56.32c17.067-13.653 27.307-34.133 27.307-56.32 0-39.253-32.427-69.973-69.973-69.973-39.253 0-69.973 32.427-69.973 69.973 0 23.893 11.947 44.373 27.307 56.32zM196.267 853.333v-56.32c0-23.893 18.773-42.667 42.667-42.667s42.667 18.773 42.667 42.667v56.32c17.067-13.653 27.307-34.133 27.307-56.32 0-39.253-32.427-69.973-69.973-69.973-39.253 0-69.973 32.427-69.973 69.973 0 23.893 10.24 44.373 27.307 56.32zM365.227 418.133c15.36 5.12 29.013 13.653 35.84 27.307 8.533 13.653 11.947 27.307 11.947 44.373 0 15.36-3.413 29.013-10.24 42.667-6.827 11.947-15.36 22.187-27.307 30.72s-23.893 13.653-37.547 18.773-27.307 5.12-42.667 5.12c-17.067 0-34.133-3.413-49.493-8.533-13.653-5.12-27.307-13.653-37.547-23.893s-18.773-23.893-23.893-37.547c-5.12-13.653-8.533-32.427-10.24-49.493h68.267c0 17.067 5.12 34.133 13.653 44.373 8.533 11.947 23.893 17.067 40.96 17.067 13.653 0 23.893-5.12 34.133-11.947 10.24-8.533 13.653-18.773 13.653-34.133 0-10.24-3.413-17.067-6.827-23.893-5.12-5.12-11.947-10.24-18.773-13.653s-15.36-5.12-23.893-5.12c-8.533 0-17.067 0-23.893 0v-51.2c8.533 0 17.067 0 27.307-1.707 10.24 0 18.773-3.413 25.6-5.12 8.533-3.413 13.653-8.533 20.48-15.36 5.12-6.827 6.827-17.067 6.827-30.72 0-17.067-5.12-30.72-15.36-40.96-11.947-10.24-23.893-13.653-40.96-13.653-10.24 0-18.773 1.707-27.307 5.12-6.827 5.12-13.653 8.533-18.773 13.653s-8.533 13.653-11.947 22.187c-3.413 8.533-5.12 17.067-5.12 27.307h-68.267c0-20.48 3.413-39.253 8.533-52.907 5.12-15.36 13.653-29.013 25.6-40.96s23.893-18.773 42.667-23.893c15.36-5.12 34.133-8.533 52.907-8.533 17.067 0 34.133 3.413 49.493 6.827 15.36 5.12 29.013 13.653 42.667 22.187 11.947 10.24 22.187 22.187 29.013 35.84s10.24 30.72 10.24 49.493c0 20.48-5.12 37.547-15.36 52.907-10.24 11.947-23.893 22.187-44.373 27.307zM870.4 319.146c-8.533 1.707-17.067 1.707-27.307 1.707s-20.48-1.707-30.72-3.413c-76.8-13.653-136.533-73.387-148.48-151.893-1.707-8.533-1.707-18.773-1.707-27.307 0-10.24 1.707-20.48 1.707-29.013 13.653-87.040 88.747-151.893 179.2-151.893 100.693 0 180.907 80.213 180.907 180.907 0 92.16-66.56 167.253-153.6 180.907zM843.093-5.12c-69.973 0-128 49.493-141.653 116.053-1.707 10.24-3.413 18.773-3.413 29.013 0 8.533 1.707 18.773 3.413 27.307 10.24 56.32 54.613 102.4 110.933 114.347 10.24 1.707 20.48 3.413 30.72 3.413 8.533 0 18.773-1.707 27.307-3.413 66.56-11.947 117.76-71.68 117.76-141.653 0-80.213-64.853-145.067-145.067-145.067zM870.4 167.253v78.507h-54.613v-78.507h-78.507v-61.44h78.507v-71.68h54.613v71.68h78.507v61.44z" />
<glyph unicode="&#xe91a;" glyph-name="add-calendar2" d="M866.987 322.56v484.693c-1.707 46.080-39.253 83.627-85.333 83.627h-110.933v42.667c0 23.893-18.773 42.667-42.667 42.667s-42.667-18.773-42.667-42.667v-42.667h-307.2v42.667c0 23.893-18.773 42.667-42.667 42.667s-42.667-18.773-42.667-42.667v-42.667h-192.853v-699.733c0-46.080 37.547-83.627 83.627-83.627h581.973c17.067-81.92 88.747-145.067 177.493-145.067 100.693 1.707 180.907 81.92 180.907 182.613 0 90.453-68.267 167.253-157.013 177.493zM808.96 597.333v-98.987h-167.253v141.653h126.293c22.187 0 40.96-18.773 40.96-42.667zM221.867 163.84h-124.587c-23.893 0-42.667 18.773-42.667 42.667v97.28h167.253v-139.947zM221.867 332.8h-167.253v139.947h167.253v-139.947zM221.867 500.053h-167.253v139.947h167.253v-139.947zM167.253 793.6c0 23.893 11.947 42.667 27.307 56.32v-56.32c0-23.893 18.773-42.667 42.667-42.667s42.667 18.773 42.667 42.667v56.32c17.067-13.653 27.307-32.427 27.307-56.32 0-39.253-32.427-69.973-69.973-69.973-39.253 0-69.973 32.427-69.973 69.973zM418.133 163.84h-167.253v138.24h167.253v-138.24zM418.133 332.8h-167.253v139.947h167.253v-139.947zM418.133 500.053h-167.253v139.947h167.253v-139.947zM614.4 163.84h-167.253v138.24h167.253v-138.24zM614.4 332.8h-167.253v139.947h167.253v-139.947zM614.4 500.053h-167.253v139.947h167.253v-139.947zM559.787 793.6c0 23.893 11.947 42.667 27.307 56.32v-56.32c0-23.893 18.773-42.667 42.667-42.667s42.667 18.773 42.667 42.667v56.32c17.067-13.653 27.307-32.427 27.307-56.32 0-39.253-32.427-69.973-69.973-69.973-40.96 0-69.973 32.427-69.973 69.973zM641.707 472.746h167.253v-139.947h-167.253v139.947zM843.093 0c-66.56 0-122.88 46.080-139.947 107.52-1.707 11.947-3.413 23.893-3.413 37.547 0 80.213 64.853 145.067 145.067 145.067 8.533 0 15.36 0 23.893-1.707 68.267-11.947 121.173-69.973 121.173-141.653-1.707-81.92-66.56-146.773-146.773-146.773zM866.987 168.96v78.507h-52.907v-78.507h-78.507v-61.44h78.507v-71.68h52.907v71.68h78.507v61.44z" />
<glyph unicode="&#xe91b;" glyph-name="add-group" d="M257.707 610.986c52.907 0 98.987 23.893 129.707 59.733-1.707 8.533-1.707 18.773-1.707 27.307 0 46.080 13.653 90.453 37.547 124.587-18.773 75.093-85.333 129.707-167.253 129.707-93.867 1.707-170.667-75.093-170.667-170.667 0-93.867 76.8-170.667 172.373-170.667zM428.373 570.026c-8.533 11.947-15.36 23.893-22.187 37.547-39.253-34.133-92.16-54.613-148.48-54.613s-109.227 22.187-150.187 56.32c-63.147-32.427-107.52-98.987-107.52-175.787v-165.547c0-29.013 23.893-52.907 52.907-52.907h245.76v139.947c0 34.133 6.827 64.853 18.773 95.573 13.653 29.013 30.72 56.32 52.907 78.507 18.773 17.067 37.547 29.013 58.027 40.96zM612.693 530.773c93.867 0 172.373 76.8 172.373 172.373s-76.8 170.667-172.373 170.667c-93.867 0-172.373-76.8-172.373-172.373-1.707-95.573 76.8-170.667 172.373-170.667zM870.4 346.453v8.533c0 78.507-46.080 145.067-112.64 175.787-39.253-34.133-90.453-52.907-145.067-52.907s-105.813 20.48-145.067 52.907c-66.56-30.72-112.64-97.28-112.64-175.787v-167.253c0-29.013 23.893-52.907 52.907-52.907h257.707c15.36-83.627 88.747-148.48 177.493-148.48 100.693 0 180.907 80.213 180.907 180.907 0 90.453-66.56 165.547-153.6 179.2zM843.093 22.186c-68.267 0-126.293 47.787-141.653 110.933-3.413 10.24-3.413 22.187-3.413 34.133 0 80.213 64.853 145.067 145.067 145.067 8.533 0 18.773-1.707 27.307-3.413 66.56-13.653 117.76-71.68 117.76-141.653 0-80.213-64.853-145.067-145.067-145.067zM870.4 194.56v0 78.507h-54.613v-78.507h-78.507v-61.44h78.507v-71.68h54.613v71.68h78.507v61.44z" />
<glyph unicode="&#xe91c;" glyph-name="address-book" d="M989.867 885.76c0 52.907-42.667 95.573-95.573 95.573h-762.88v-160.427h-32.427c-35.84 0-64.853-29.013-64.853-64.853s29.013-63.147 64.853-63.147h32.427v-160.427h-32.427c-35.84 0-64.853-29.013-64.853-63.147 0-35.84 29.013-64.853 64.853-64.853h32.427v-160.427h-32.427c-35.84 0-64.853-29.013-64.853-64.853s29.013-64.853 64.853-64.853h32.427v-64.853c0-52.907 42.667-95.573 95.573-95.573h762.88v931.84zM559.787 790.186c61.44 0 112.64-49.493 112.64-112.64s-49.493-112.64-112.64-112.64-112.64 49.493-112.64 112.64 52.907 112.64 112.64 112.64zM735.573 157.013h-286.72c-35.84 0-63.147 29.013-63.147 64.853v0 143.36c0 97.28 78.507 177.493 175.787 177.493s175.787-80.213 175.787-177.493v-208.213z" />
<glyph unicode="&#xe91d;" glyph-name="administrator" d="M510.293 547.84c119.467 0 216.747 97.28 216.747 216.747s-97.28 216.747-216.747 216.747-216.747-97.28-216.747-216.747c0-119.467 97.28-216.747 216.747-216.747zM646.827 216.746c-35.84 0-64.853-29.013-64.853-64.853s29.013-64.853 64.853-64.853c35.84 0 64.853 29.013 64.853 64.853s-30.72 64.853-64.853 64.853zM701.44 563.2c-49.493-46.080-116.053-75.093-189.44-75.093s-139.947 29.013-189.44 75.093c-81.92-44.373-138.24-131.413-141.653-232.107v0-252.587c0-66.56 54.613-121.173 121.173-121.173h542.72v366.933c-1.707 102.4-59.733 192.853-143.36 238.933zM776.533 98.986c-18.773-44.373-27.307 3.413-52.907-23.893-25.6-25.6 22.187-34.133-23.893-52.907-44.373-18.773-17.067 22.187-54.613 22.187s-8.533-40.96-54.613-22.187c-44.373 18.773 3.413 27.307-23.893 52.907-25.6 25.6-34.133-22.187-52.907 23.893-18.773 44.373 22.187 17.067 22.187 54.613s-40.96 8.533-22.187 54.613c18.773 44.373 27.307-3.413 52.907 23.893 25.6 25.6-22.187 34.133 23.893 52.907 44.373 18.773 17.067-22.187 54.613-22.187s8.533 40.96 54.613 22.187c44.373-18.773-3.413-27.307 23.893-52.907 25.6-25.6 34.133 22.187 52.907-23.893 18.773-44.373-22.187-17.067-22.187-54.613s42.667-10.24 22.187-54.613z" />
<glyph unicode="&#xe91e;" glyph-name="advertising" d="M962.56 981.333h-430.080l-496.64-496.64c-47.787-47.787-47.787-126.293 0-174.080l317.44-317.44c47.787-47.787 126.293-47.787 174.080 0l496.64 496.64v430.080c0 34.133-27.307 61.44-61.44 61.44zM768 346.453l-80.213-22.187-22.187-80.213-78.507 20.48-58.027-58.027-59.733 58.027-80.213-22.187-22.187 80.213-80.213 22.187 22.187 80.213-58.027 58.027 58.027 58.027-22.187 80.213 80.213 22.187 22.187 80.213 80.213-22.187 58.027 58.027 58.027-58.027 80.213 22.187 22.187-80.213 80.213-22.187-22.187-80.213 58.027-58.027-58.027-58.027 22.187-78.507zM873.813 769.706c-32.427 0-59.733 27.307-59.733 59.733s27.307 59.733 59.733 59.733 59.733-27.307 59.733-59.733-27.307-59.733-59.733-59.733z" />
<glyph unicode="&#xe91f;" glyph-name="aeroplane" d="M1017.173 969.386v0c-1.707 1.707-1.707 1.707-1.707 1.707l-3.413 3.413c0 0 0 0-1.707 0 0 0 0 0-1.707 0-30.72 20.48-100.693-13.653-160.427-58.027l-220.16-163.84-471.040 158.72c-13.653 3.413-27.307 0-37.547-10.24l-64.853-64.853 409.6-247.467-245.76-302.080-179.2 76.8c-6.827 3.413-15.36 1.707-20.48-3.413v0 0l-18.773-18.773 384-384c0 0 10.24 10.24 18.773 18.773v0 0 0c5.12 5.12 6.827 13.653 5.12 20.48v0l-76.8 180.907 303.787 247.467 245.76-411.307 68.267 68.267c11.947 11.947 13.653 30.72 5.12 44.373l-155.307 464.213 163.84 220.16c40.96 58.027 75.093 128 54.613 158.72z" />
<glyph unicode="&#xe920;" glyph-name="affichage" d="M568.32 981.333v-170.667h455.68v170.667h-455.68zM568.32 525.653h455.68v170.667h-455.68v-170.667zM568.32 242.346h455.68v170.667h-455.68v-170.667zM568.32-42.667h455.68v170.667h-455.68v-170.667zM0 525.653h455.68v455.68h-455.68v-455.68zM0-42.667h455.68v455.68h-455.68v-455.68z" />
<glyph unicode="&#xe921;" glyph-name="affichage-liste" d="M215.040 98.986h808.96v170.667h-808.96v-170.667zM150.187 754.346c0-41.473-33.62-75.093-75.093-75.093s-75.093 33.62-75.093 75.093c0 41.473 33.62 75.093 75.093 75.093s75.093-33.62 75.093-75.093zM150.187 469.333c0-41.473-33.62-75.093-75.093-75.093s-75.093 33.62-75.093 75.093c0 41.473 33.62 75.093 75.093 75.093s75.093-33.62 75.093-75.093zM150.187 184.32c0-41.473-33.62-75.093-75.093-75.093s-75.093 33.62-75.093 75.093c0 41.473 33.62 75.093 75.093 75.093s75.093-33.62 75.093-75.093zM215.040 839.68h808.96v-170.667h-808.96v170.667zM215.040 554.666h808.96v-170.667h-808.96v170.667z" />
<glyph unicode="&#xe922;" glyph-name="agriculture" d="M954.027 547.84v0l-100.693 8.533v126.293c0 0 0 15.36 0 35.84s15.36 35.84 35.84 35.84v69.973h-35.84c-39.253 0-71.68-32.427-71.68-71.68v-191.147l-213.333 15.36-85.333 300.373c-6.827 32.427-35.84 56.32-69.973 56.32-1.707 0-6.827 0-6.827 0h-262.827c-39.253-1.707-71.68-34.133-71.68-71.68v-327.68l-52.907-30.72c-17.067-8.533-23.893-30.72-11.947-49.493 8.533-17.067 32.427-23.893 49.493-11.947l17.067 8.533c46.080 39.253 95.573 56.32 160.427 56.32 148.48 0 267.947-119.467 267.947-267.947 0-17.067 0-17.067 0-17.067h197.973c-11.947-20.48-20.48-44.373-20.48-71.68 0-78.507 63.147-141.653 141.653-141.653 73.387 0 136.533 56.32 143.36 131.413l56.32 317.44c1.707 8.533 3.413 13.653 3.413 22.187-5.12 34.133-32.427 64.853-69.973 68.267zM141.653 575.146v286.72h271.36l83.627-285.013-354.987-1.707zM232.107 469.333c-128 0-232.107-104.107-232.107-232.107s104.107-232.107 232.107-232.107 232.107 104.107 232.107 232.107-104.107 232.107-232.107 232.107zM230.4 76.8c-90.453 0-162.133 71.68-162.133 160.427s71.68 160.427 162.133 160.427 162.133-71.68 162.133-160.427c0-87.040-73.387-160.427-162.133-160.427z" />
<glyph unicode="&#xe923;" glyph-name="airbox-auto" d="M981.333 552.96v0l-138.24 25.6-203.093 215.040c-10.24 10.24-25.6 17.067-40.96 17.067h-370.347c-18.773 0-35.84-8.533-46.080-22.187l-170.667-226.987c-6.827-8.533-11.947-22.187-11.947-34.133v-199.68c0-32.427 25.6-56.32 56.32-56.32h30.72c0-78.507 63.147-141.653 141.653-141.653s141.653 63.147 141.653 141.653h256c0-78.507 63.147-141.653 141.653-141.653s141.653 63.147 141.653 141.653h56.32c32.427 0 56.32 25.6 56.32 56.32v170.667c5.12 27.307-13.653 49.493-40.96 54.613zM433.493 448.853c-18.773 0-32.427 15.36-32.427 34.133s15.36 32.427 34.133 32.427c18.773 0 32.427-15.36 32.427-34.133-1.707-18.773-17.067-32.427-34.133-32.427zM484.693 539.306c-15.36 11.947-34.133 20.48-54.613 20.48-22.187 0-40.96-8.533-56.32-20.48l-23.893 29.013c22.187 18.773 49.493 30.72 81.92 29.013 30.72 0 58.027-11.947 80.213-29.013l-27.307-29.013zM532.48 595.626c-27.307 23.893-63.147 39.253-104.107 39.253s-76.8-15.36-105.813-39.253l-25.6 29.013c35.84 30.72 80.213 49.493 131.413 47.787 49.493 0 93.867-18.773 128-47.787l-23.893-29.013zM585.387 648.533c-42.667 35.84-95.573 58.027-155.307 58.027-61.44 0-117.76-22.187-158.72-59.733l-23.893 29.013c49.493 42.667 114.347 68.267 184.32 68.267 68.267-1.707 131.413-25.6 179.2-66.56l-25.6-29.013z" />
<glyph unicode="&#xe924;" glyph-name="alarm-clock" d="M977.92 851.626l-122.88 107.52c-35.84 32.427-92.16 29.013-124.587-8.533l-73.387-83.627c-46.080 17.067-95.573 25.6-146.773 25.6s-100.693-8.533-146.773-25.6l-73.387 83.627c-30.72 35.84-85.333 40.96-121.173 8.533l-122.88-107.52c-35.84-32.427-40.96-87.040-8.533-124.587l76.8-88.747c-25.6-56.32-40.96-119.467-40.96-184.32 0-119.467 47.787-228.693 126.293-307.2l-59.733-102.4c-15.36-27.307-6.827-63.147 22.187-80.213 8.533-5.12 18.773-8.533 29.013-8.533 20.48 0 39.253 10.24 51.2 29.013l51.2 88.747c64.853-37.547 139.947-59.733 220.16-59.733s155.307 22.187 220.16 59.733l51.2-88.747c10.24-18.773 30.72-29.013 51.2-29.013 10.24 0 20.48 1.707 29.013 8.533 27.307 15.36 37.547 51.2 22.187 80.213l-59.733 102.4c76.8 78.507 126.293 187.733 126.293 307.2 0 66.56-15.36 128-40.96 184.32l76.8 88.747c27.307 37.547 23.893 92.16-11.947 124.587zM512 107.52c-194.56 0-351.573 157.013-351.573 351.573s157.013 348.16 351.573 348.16 351.573-157.013 351.573-351.573c-1.707-191.147-158.72-348.16-351.573-348.16zM554.667 476.16v242.347c0 23.893-18.773 42.667-42.667 42.667s-42.667-18.773-42.667-42.667v-262.827c0-13.653 6.827-25.6 15.36-34.133l143.36-143.36c8.533-8.533 20.48-13.653 30.72-13.653s22.187 5.12 30.72 13.653c17.067 17.067 17.067 44.373 0 61.44l-134.827 136.533z" />
<glyph unicode="&#xe925;" glyph-name="alarm-multiplef" d="M653.653 568.32c-23.893 0-42.667-18.773-42.667-42.667v-148.48l-81.92-81.92c-17.067-17.067-17.067-44.373 0-59.733 8.533-8.533 18.773-11.947 30.72-11.947s22.187 3.413 30.72 11.947l88.747 88.747c10.24 6.827 17.067 20.48 17.067 34.133v168.96c0 22.187-18.773 40.96-42.667 40.96zM732.16 689.493c-35.84 167.253-184.32 291.84-361.813 291.84-204.8 0-370.347-165.547-370.347-370.347 0-177.493 124.587-325.973 291.84-361.813 35.84-167.253 184.32-291.84 361.813-291.84 204.8 0 370.347 165.547 370.347 370.347 0 177.493-124.587 325.973-291.84 361.813zM276.48 506.88c-10.24 0-22.187 3.413-30.72 11.947-17.067 17.067-17.067 44.373 0 59.733l81.92 81.92v179.2c0 23.893 18.773 42.667 42.667 42.667s42.667-18.773 42.667-42.667v-196.267c0-13.653-6.827-25.6-17.067-34.133l-90.453-88.747c-8.533-8.533-18.773-13.653-29.013-13.653zM653.653 42.666c-157.013 0-285.013 128-285.013 285.013s128 285.013 285.013 285.013c157.013 0 285.013-128 285.013-285.013s-128-285.013-285.013-285.013z" />
<glyph unicode="&#xe926;" glyph-name="alert" d="M114.347 11.946h797.013c63.147 0 114.347 54.613 114.347 116.053 0 20.48-5.12 42.667-15.36 58.027v0l-397.653 682.667c-20.48 34.133-56.32 56.32-98.987 56.32s-78.507-22.187-98.987-56.32v0l-397.653-679.253c0 0 0 0 0 0l-1.707-1.707c-10.24-17.067-15.36-39.253-15.36-59.733 0-63.147 51.2-116.053 114.347-116.053zM460.8 670.72c0 15.36 6.827 22.187 22.187 22.187h56.32c15.36 0 22.187-6.827 22.187-22.187v-141.653l-29.013-226.987h-46.080l-25.6 226.987v141.653zM460.8 250.88h102.4v-119.467h-102.4v119.467z" />
<glyph unicode="&#xe927;" glyph-name="antenna" d="M424.96 682.666c-47.787-47.787-47.787-122.88 0-170.667 8.533-8.533 17.067-13.653 25.6-18.773v-467.627c0-34.133 27.307-59.733 59.733-59.733s59.733 27.307 59.733 59.733v467.627c8.533 5.12 17.067 11.947 25.6 18.773 47.787 47.787 47.787 122.88 0 170.667-46.080 47.787-124.587 47.787-170.667 0zM360.107 793.6c-11.947 11.947-30.72 11.947-42.667 0-51.2-51.2-78.507-119.467-78.507-191.147s29.013-141.653 78.507-191.147c6.827-6.827 13.653-8.533 22.187-8.533s15.36 3.413 22.187 8.533c11.947 11.947 11.947 30.72 0 42.667-40.96 40.96-61.44 92.16-61.44 150.187s22.187 109.227 61.44 150.187c10.24 8.533 10.24 27.307-1.707 39.253zM701.44 793.6c-11.947 11.947-30.72 11.947-42.667 0s-11.947-30.72 0-42.667c40.96-40.96 61.44-92.16 61.44-150.187s-22.187-109.227-61.44-150.187c-11.947-11.947-11.947-30.72 0-42.667 6.827-6.827 13.653-8.533 22.187-8.533s15.36 3.413 22.187 8.533c51.2 51.2 78.507 119.467 78.507 191.147s-27.307 145.067-80.213 194.56zM179.2 602.453c0 88.747 35.84 170.667 97.28 235.52 11.947 11.947 11.947 30.72 0 42.667s-30.72 11.947-42.667 0c-73.387-73.387-114.347-172.373-114.347-276.48s40.96-203.093 114.347-276.48c6.827-6.827 13.653-8.533 22.187-8.533s15.36 3.413 22.187 8.533c11.947 11.947 11.947 30.72 0 42.667-64.853 61.44-98.987 143.36-98.987 232.107zM786.773 878.933c-11.947 11.947-30.72 11.947-42.667 0s-11.947-30.72 0-42.667c61.44-61.44 97.28-146.773 97.28-235.52s-35.84-170.667-97.28-235.52c-11.947-11.947-11.947-30.72 0-42.667 6.827-6.827 13.653-8.533 22.187-8.533s15.36 3.413 22.187 8.533c73.387 73.387 114.347 172.373 114.347 276.48-1.707 107.52-40.96 206.507-116.053 279.893zM58.027 602.453c0 121.173 47.787 233.813 133.12 319.147 11.947 11.947 11.947 30.72 0 42.667s-30.72 10.24-40.96 0c-49.493-49.493-88.747-105.813-112.64-170.667-25.6-61.44-37.547-126.293-37.547-192.853s13.653-131.413 37.547-192.853c25.6-63.147 63.147-121.173 112.64-168.96 5.12-6.827 11.947-8.533 20.48-8.533s15.36 3.413 22.187 8.533c11.947 11.947 11.947 30.72 0 42.667-87.040 85.333-134.827 199.68-134.827 320.853zM984.747 795.306c-25.6 63.147-63.147 121.173-112.64 168.96-11.947 11.947-30.72 11.947-42.667 0s-11.947-30.72 0-42.667c85.333-85.333 133.12-197.973 133.12-319.147s-47.787-233.813-133.12-319.147c-11.947-11.947-11.947-30.72 0-42.667 6.827-6.827 13.653-8.533 22.187-8.533s15.36 3.413 22.187 8.533c49.493 49.493 87.040 105.813 112.64 168.96 25.6 64.853 37.547 129.707 37.547 196.267-1.707 61.44-13.653 128-39.253 189.44z" />
<glyph unicode="&#xe928;" glyph-name="antivirus" d="M901.12 860.16c-146.773 0-281.6 44.373-389.12 121.173-109.227-75.093-242.347-121.173-389.12-121.173h-32.427v-331.093c0-223.573 129.707-481.28 421.547-571.733 291.84 90.453 421.547 349.867 421.547 571.733v331.093h-32.427zM197.973 395.946c-11.947 42.667-17.067 88.747-17.067 133.12v242.347c61.44 5.12 121.173 15.36 177.493 34.133 54.613 17.067 105.813 39.253 153.6 68.267 35.84-20.48 71.68-37.547 110.933-52.907l-424.96-424.96zM843.093 529.066c0-100.693-30.72-201.387-87.040-285.013-30.72-46.080-68.267-85.333-110.933-117.76-39.253-30.72-85.333-54.613-134.827-73.387-49.493 18.773-93.867 42.667-134.827 73.387-5.12 3.413-10.24 8.533-15.36 11.947l481.28 477.867 1.707-87.040z" />
<glyph unicode="&#xe929;" glyph-name="archive" d="M921.6 981.333h-921.6v-921.6c0-56.32 46.080-102.4 102.4-102.4h921.6v921.6c0 56.32-46.080 102.4-102.4 102.4zM921.6 128c0-37.547-30.72-68.267-68.267-68.267h-682.667c-37.547 0-68.267 30.72-68.267 68.267v238.933c0 37.547 30.72 68.267 68.267 68.267h682.667c37.547 0 68.267-30.72 68.267-68.267v-238.933zM921.6 571.733c0-37.547-30.72-68.267-68.267-68.267h-682.667c-37.547 0-68.267 30.72-68.267 68.267v238.933c0 37.547 30.72 68.267 68.267 68.267h682.667c37.547 0 68.267-30.72 68.267-68.267v-238.933zM853.333 844.8h-682.667c-18.773 0-34.133-15.36-34.133-34.133v-238.933c0-18.773 15.36-34.133 34.133-34.133h682.667c18.773 0 34.133 15.36 34.133 34.133v238.933c0 18.773-15.36 34.133-34.133 34.133zM614.4 674.133c0-18.773-15.36-34.133-34.133-34.133h-136.533c-18.773 0-34.133 15.36-34.133 34.133v34.133c0 18.773 15.36 34.133 34.133 34.133h136.533c18.773 0 34.133-15.36 34.133-34.133v-34.133zM853.333 401.066h-682.667c-18.773 0-34.133-15.36-34.133-34.133v-238.933c0-18.773 15.36-34.133 34.133-34.133h682.667c18.773 0 34.133 15.36 34.133 34.133v238.933c0 18.773-15.36 34.133-34.133 34.133zM614.4 230.4c0-18.773-15.36-34.133-34.133-34.133h-136.533c-18.773 0-34.133 15.36-34.133 34.133v34.133c0 18.773 15.36 34.133 34.133 34.133h136.533c18.773 0 34.133-15.36 34.133-34.133v-34.133z" />
<glyph unicode="&#xe92a;" glyph-name="arrow-down" d="M0 773.12l512-607.573 512 607.573z" />
<glyph unicode="&#xe92b;" glyph-name="arrow-improvement" d="M993.28 950.613h-308.907l112.64-112.64-245.76-245.76-129.707 129.707-421.547-421.547v-157.013c0-18.773 3.413-37.547 10.24-54.613l411.307 411.307 129.707-129.707 356.693 356.693 116.053-116.053v308.907c0 17.067-13.653 30.72-30.72 30.72zM907.947 640l-356.693-358.4-129.707 129.707-377.173-375.467c29.013-29.013 68.267-47.787 110.933-47.787h713.387c85.333 0 155.307 69.973 155.307 155.307v380.587l-116.053 116.053z" />
<glyph unicode="&#xe92c;" glyph-name="arrow-refresh" d="M916.48 783.36c-93.867 121.173-240.64 197.973-404.48 197.973-252.587 0-460.8-182.613-503.467-421.547h153.6c5.12 17.067 10.24 34.133 17.067 49.493 18.773 42.667 44.373 81.92 76.8 114.347s71.68 59.733 114.347 76.8c44.373 18.773 92.16 29.013 139.947 29.013s95.573-10.24 139.947-29.013c42.667-18.773 81.92-44.373 114.347-76.8 15.36-15.36 29.013-32.427 40.96-49.493l-116.053-116.053h264.533c35.84 0 66.56 29.013 66.56 66.56v266.24l-104.107-107.52zM844.8 329.386c-18.773-44.373-44.373-81.92-76.8-116.053-32.427-32.427-71.68-59.733-114.347-76.8-44.373-18.773-92.16-29.013-139.947-29.013s-95.573 10.24-139.947 29.013c-46.080 18.773-83.627 44.373-117.76 76.8-15.36 15.36-29.013 32.427-40.96 49.493l116.053 116.053h-264.533c-37.547 0-66.56-29.013-66.56-66.56v-264.533l107.52 107.52c93.867-121.173 240.64-197.973 404.48-197.973 252.587 0 460.8 182.613 503.467 421.547h-153.6c-3.413-17.067-10.24-34.133-17.067-49.493z" />
<glyph unicode="&#xe92d;" glyph-name="arrow-up" d="M512 773.12l-512-607.573h1024z" />
<glyph unicode="&#xe92e;" glyph-name="assistance" d="M512 981.333c-283.307 0-512-228.693-512-512s228.693-512 512-512c283.307 0 512 228.693 512 512s-228.693 512-512 512zM549.547 162.133c-13.653-11.947-27.307-17.067-44.373-17.067s-32.427 5.12-46.080 17.067c-13.653 11.947-18.773 27.307-18.773 47.787 0 18.773 6.827 32.427 18.773 46.080 11.947 11.947 27.307 18.773 46.080 18.773s32.427-6.827 46.080-18.773c11.947-11.947 18.773-27.307 18.773-46.080-1.707-22.187-8.533-37.547-20.48-47.787zM709.973 559.786c-10.24-18.773-22.187-34.133-35.84-47.787s-37.547-35.84-73.387-66.56c-10.24-8.533-17.067-17.067-23.893-23.893-5.12-6.827-10.24-13.653-13.653-18.773s-5.12-11.947-6.827-17.067-3.413-15.36-6.827-29.013c-5.12-29.013-22.187-44.373-51.2-44.373-15.36 0-27.307 5.12-37.547 15.36s-15.36 23.893-15.36 42.667c0 23.893 3.413 44.373 11.947 63.147 6.827 17.067 17.067 32.427 29.013 46.080s29.013 29.013 49.493 47.787c18.773 15.36 30.72 27.307 39.253 35.84s15.36 17.067 20.48 27.307c5.12 10.24 8.533 20.48 8.533 32.427 0 22.187-8.533 42.667-25.6 58.027s-39.253 23.893-66.56 23.893c-30.72 0-54.613-8.533-69.973-23.893s-27.307-39.253-37.547-69.973c-10.24-32.427-29.013-47.787-54.613-47.787-15.36 0-29.013 5.12-40.96 17.067-10.24 11.947-17.067 23.893-17.067 37.547 0 27.307 8.533 54.613 25.6 81.92s42.667 51.2 76.8 69.973 73.387 27.307 117.76 27.307c40.96 0 78.507-6.827 109.227-22.187 32.427-15.36 56.32-35.84 73.387-63.147 17.067-25.6 25.6-54.613 25.6-85.333 3.413-27.307-1.707-49.493-10.24-66.56z" />
<glyph unicode="&#xe92f;" glyph-name="assistance-2" d="M512 981.333c-283.307 0-512-228.693-512-512s228.693-512 512-512c283.307 0 512 228.693 512 512s-228.693 512-512 512zM549.547 162.133c-13.653-11.947-27.307-17.067-44.373-17.067s-32.427 5.12-46.080 17.067c-13.653 11.947-18.773 27.307-18.773 47.787 0 18.773 6.827 32.427 18.773 46.080 11.947 11.947 27.307 18.773 46.080 18.773s32.427-6.827 46.080-18.773c11.947-11.947 18.773-27.307 18.773-46.080-1.707-22.187-8.533-37.547-20.48-47.787zM709.973 559.786c-10.24-18.773-22.187-34.133-35.84-47.787s-37.547-35.84-73.387-66.56c-10.24-8.533-17.067-17.067-23.893-23.893-5.12-6.827-10.24-13.653-13.653-18.773s-5.12-11.947-6.827-17.067c-1.707-5.12-3.413-15.36-6.827-29.013-5.12-29.013-22.187-44.373-51.2-44.373-15.36 0-27.307 5.12-37.547 15.36s-15.36 23.893-15.36 42.667c0 23.893 3.413 44.373 11.947 63.147 6.827 17.067 17.067 32.427 29.013 46.080s29.013 29.013 49.493 47.787c18.773 15.36 30.72 27.307 39.253 35.84s15.36 17.067 20.48 27.307c5.12 10.24 8.533 20.48 8.533 32.427 0 22.187-8.533 42.667-25.6 58.027s-39.253 23.893-66.56 23.893c-30.72 0-54.613-8.533-69.973-23.893s-27.307-39.253-37.547-69.973c-10.24-32.427-29.013-47.787-54.613-47.787-15.36 0-29.013 5.12-40.96 17.067-10.24 11.947-17.067 23.893-17.067 37.547 0 27.307 8.533 54.613 25.6 81.92s42.667 51.2 76.8 69.973c34.133 18.773 73.387 27.307 117.76 27.307 40.96 0 78.507-6.827 109.227-22.187 32.427-15.36 56.32-35.84 73.387-63.147 17.067-25.6 25.6-54.613 25.6-85.333 3.413-27.307-1.707-49.493-10.24-66.56z" />
<glyph unicode="&#xe930;" glyph-name="attachment" d="M583.68 981.333c-102.4 0-184.32-83.627-184.32-184.32v-583.68c0-63.147 51.2-114.347 114.347-114.347s114.347 51.2 114.347 114.347v341.333c0 30.72-25.6 56.32-56.32 56.32h-29.013v-397.653c0-15.36-11.947-29.013-29.013-29.013s-29.013 11.947-29.013 29.013v583.68c0 54.613 44.373 98.987 98.987 98.987s98.987-44.373 98.987-98.987v-583.68c0-46.080-17.067-88.747-49.493-121.173s-75.093-49.493-121.173-49.493-88.747 17.067-121.173 49.493-49.493 75.093-49.493 121.173v397.653h-29.013c-30.72 0-56.32-25.6-56.32-56.32v-341.333c0-141.653 114.347-256 256-256s256 114.347 256 256v583.68c0 100.693-83.627 184.32-184.32 184.32z" />
<glyph unicode="&#xe931;" glyph-name="avatar" d="M701.44 563.2c-49.493-46.080-116.053-75.093-189.44-75.093s-139.947 29.013-189.44 75.093c-81.92-44.373-138.24-131.413-141.653-232.107v0-252.587c0-66.56 54.613-121.173 121.173-121.173h542.72v366.933c-1.707 102.4-59.733 192.853-143.36 238.933zM510.293 547.84c119.467 0 216.747 97.28 216.747 216.747s-97.28 216.747-216.747 216.747-216.747-97.28-216.747-216.747c0-119.467 97.28-216.747 216.747-216.747z" />
<glyph unicode="&#xe932;" glyph-name="avatar-support" d="M720.213 453.973c110.933 0 203.093 90.453 203.093 203.093s-90.453 201.387-203.093 201.387c-110.933 0-203.093-90.453-203.093-203.093s92.16-201.387 203.093-201.387zM303.787 547.84c61.44 0 116.053 27.307 153.6 69.973-1.707 10.24-1.707 22.187-1.707 32.427 0 54.613 17.067 105.813 44.373 146.773-22.187 88.747-100.693 153.6-196.267 153.6-112.64 1.707-203.093-88.747-203.093-201.387 0-110.933 90.453-201.387 203.093-201.387zM890.88 452.266c-46.080-39.253-105.813-61.44-170.667-61.44s-124.587 23.893-170.667 61.44c-78.507-35.84-133.12-114.347-133.12-206.507v-196.267c0-34.133 29.013-63.147 63.147-63.147h544.427v259.413c0 92.16-54.613 170.667-133.12 206.507zM851.627 354.986c6.827 6.827 17.067 11.947 27.307 11.947s20.48-3.413 27.307-11.947c6.827-6.827 10.24-17.067 10.24-27.307s-3.413-18.773-11.947-27.307c-6.827-6.827-17.067-10.24-27.307-10.24s-18.773 3.413-27.307 10.24c-6.827 6.827-10.24 17.067-10.24 27.307 1.707 11.947 5.12 20.48 11.947 27.307zM945.493 42.666h-124.587v13.653h3.413c5.12 0 8.533 1.707 11.947 1.707 3.413 1.707 5.12 3.413 6.827 5.12s5.12 6.827 5.12 25.6v124.587c0 17.067-3.413 23.893-5.12 27.307-1.707 1.707-3.413 3.413-5.12 3.413-3.413 1.707-8.533 1.707-13.653 1.707h-1.707v15.36h97.28v-170.667c0-17.067 3.413-23.893 5.12-27.307 3.413-3.413 8.533-5.12 18.773-6.827h3.413v-13.653zM503.467 500.053c-10.24 13.653-18.773 29.013-25.6 44.373-46.080-40.96-107.52-64.853-174.080-64.853s-128 25.6-175.787 66.56c-75.093-37.547-128-116.053-128-206.507v-194.56c0-34.133 29.013-63.147 63.147-63.147h290.133v163.84c0 39.253 8.533 76.8 22.187 112.64 15.36 34.133 35.84 66.56 61.44 92.16 20.48 20.48 42.667 35.84 66.56 49.493zM281.6 151.893c-10.24-10.24-27.307-11.947-39.253-3.413-1.707 1.707-3.413 1.707-5.12 3.413l-110.933 110.933c-15.36-1.707-30.72 3.413-42.667 13.653-13.653 13.653-18.773 35.84-11.947 52.907l29.013-29.013c5.12-5.12 10.24-3.413 15.36 1.707l15.36 13.653c5.12 5.12 5.12 10.24 1.707 15.36l-30.72 29.013c18.773 6.827 39.253 3.413 52.907-11.947 11.947-11.947 17.067-27.307 13.653-42.667l110.933-110.933c1.707-1.707 3.413-3.413 3.413-5.12 10.24-11.947 8.533-27.307-1.707-37.547z" />
<glyph unicode="&#xe933;" glyph-name="back-iconcopy" d="M841.387 834.56l-146.773 146.773-512-512 512-512 146.773 146.773-365.227 365.227 365.227 365.227z" />
<glyph unicode="&#xe934;" glyph-name="banking" d="M996.693 97.28v27.307h-27.307v484.693h27.307v58.027h-170.667v54.613l-314.027 145.067-314.027-145.067v-54.613h-170.667v-56.32h27.307v-482.987h-27.307v-27.307h-27.307v-27.307h1024v27.307l-27.307-3.413zM512 803.84l170.667-80.213h-343.040l172.373 80.213zM228.693 211.626h-114.347v139.947h114.347v-139.947zM228.693 411.306h-114.347v141.653h114.347v-141.653zM341.333 155.306h-56.32v455.68h56.32v-455.68zM455.68 155.306h-56.32v455.68h56.32v-455.68zM626.347 155.306h-56.32v455.68h56.32v-455.68zM738.987 155.306h-56.32v455.68h56.32v-455.68zM911.36 211.626h-114.347v139.947h114.347v-139.947zM911.36 411.306h-114.347v141.653h114.347v-141.653z" />
<glyph unicode="&#xe935;" glyph-name="battery-charging" d="M996.693 610.986h-58.027v114.347c0 30.72-25.6 58.027-58.027 58.027h-822.613c-32.427-1.707-58.027-25.6-58.027-58.027v-512c0-30.72 25.6-58.027 58.027-58.027h824.32c30.72 0 58.027 25.6 58.027 58.027v114.347h58.027c15.36 0 27.307 11.947 27.307 27.307v226.987c-1.707 17.067-13.653 29.013-29.013 29.013zM397.653 240.64l30.72 172.373h-141.653l256 285.013-27.307-170.667h141.653l-259.413-286.72z" />
<glyph unicode="&#xe936;" glyph-name="battery-empty" d="M996.693 610.986h-58.027v114.347c0 30.72-25.6 58.027-58.027 58.027h-822.613c-32.427-1.707-58.027-25.6-58.027-58.027v-512c0-30.72 25.6-58.027 58.027-58.027h824.32c30.72 0 58.027 25.6 58.027 58.027v114.347h58.027c15.36 0 27.307 11.947 27.307 27.307v226.987c-1.707 17.067-13.653 29.013-29.013 29.013zM853.333 242.346h-766.293v453.973h766.293v-453.973z" />
<glyph unicode="&#xe937;" glyph-name="battery-full" d="M996.693 610.986h-58.027v114.347c0 30.72-25.6 58.027-58.027 58.027h-822.613c-32.427-1.707-58.027-25.6-58.027-58.027v-512c0-30.72 25.6-58.027 58.027-58.027h824.32c30.72 0 58.027 25.6 58.027 58.027v114.347h58.027c15.36 0 27.307 11.947 27.307 27.307v226.987c-1.707 17.067-13.653 29.013-29.013 29.013zM853.333 242.346h-766.293v453.973h766.293v-453.973zM797.013 640h-653.653v-341.333h653.653v341.333z" />
<glyph unicode="&#xe938;" glyph-name="battery-half" d="M996.693 610.986h-58.027v114.347c0 30.72-25.6 58.027-58.027 58.027h-822.613c-32.427-1.707-58.027-25.6-58.027-58.027v-512c0-30.72 25.6-58.027 58.027-58.027h824.32c30.72 0 58.027 25.6 58.027 58.027v114.347h58.027c15.36 0 27.307 11.947 27.307 27.307v226.987c-1.707 17.067-13.653 29.013-29.013 29.013zM853.333 242.346h-766.293v453.973h766.293v-453.973zM570.027 640h-426.667v-341.333h426.667v341.333z" />
<glyph unicode="&#xe939;" glyph-name="billboard" d="M965.973 882.346h-117.76l10.24 29.013h80.213v27.307c0 15.36-13.653 29.013-29.013 29.013h-114.347c-15.36 0-29.013-13.653-29.013-29.013v-29.013h61.44l-10.24-29.013h-293.547v29.013h71.68v29.013c0 15.36-13.653 29.013-29.013 29.013h-114.347c-15.36 0-29.013-13.653-29.013-29.013v-29.013h71.68v-29.013h-291.84l-10.24 29.013h61.44v29.013c0 15.36-13.653 29.013-29.013 29.013h-112.64c-15.36-1.707-27.307-15.36-27.307-29.013v-29.013h80.213l10.24-29.013h-119.467c-30.72 1.707-56.32-23.893-56.32-54.613v-453.973c0-30.72 25.6-56.32 56.32-56.32h911.36c30.72 0 56.32 25.6 56.32 56.32v453.973c0 29.013-27.307 56.32-58.027 56.32zM965.973 368.64h-911.36v455.68h911.36v-455.68zM936.96 285.013h-851.627c-15.36 0-29.013-13.653-29.013-29.013s13.653-29.013 29.013-29.013h341.333v-256h170.667v256h341.333c15.36 0 29.013 13.653 29.013 29.013-1.707 15.36-13.653 29.013-30.72 29.013z" />
<glyph unicode="&#xe93a;" glyph-name="bill-euro" d="M832.853 981.333h-737.28v-257.707h63.147c8.533 10.24 20.48 17.067 35.84 17.067 27.307 0 47.787-22.187 47.787-47.787 0-27.307-22.187-47.787-47.787-47.787-13.653 0-27.307 6.827-35.84 17.067h-63.147v-385.707h66.56c8.533 8.533 20.48 11.947 32.427 11.947 27.307 0 47.787-22.187 47.787-47.787s-22.187-47.787-47.787-47.787c-15.36 0-29.013 8.533-37.547 20.48h-61.44v-160.427c0-52.907 42.667-95.573 95.573-95.573h737.28v930.133c1.707 49.493-42.667 93.867-95.573 93.867zM384 744.106h385.707c17.067 0 32.427-13.653 32.427-32.427s-13.653-32.427-32.427-32.427h-385.707c-17.067 0-32.427 13.653-32.427 32.427s15.36 32.427 32.427 32.427zM384 581.973h385.707c17.067 0 32.427-13.653 32.427-32.427s-13.653-32.427-32.427-32.427h-385.707c-17.067 0-32.427 13.653-32.427 32.427s15.36 32.427 32.427 32.427zM590.507 358.4h-204.8c-17.067 0-32.427 13.653-32.427 32.427s13.653 32.427 32.427 32.427h204.8c17.067 0 32.427-13.653 32.427-32.427s-15.36-32.427-32.427-32.427zM836.267 98.986c-15.36-34.133-39.253-49.493-81.92-49.493-27.307 0-49.493 6.827-66.56 23.893-15.36 15.36-25.6 34.133-29.013 58.027h-13.653c-10.24 0-17.067 6.827-17.067 17.067s6.827 17.067 17.067 17.067h11.947c0 3.413 0 8.533 0 10.24 0 3.413 0 3.413 0 8.533h-11.947c-10.24 0-17.067 8.533-17.067 17.067 0 10.24 6.827 18.773 17.067 18.773h15.36c5.12 23.893 15.36 46.080 30.72 59.733 17.067 15.36 39.253 23.893 63.147 23.893 40.96 0 66.56-17.067 80.213-49.493 1.707-1.707 1.707-5.12 1.707-6.827 0-8.533-5.12-13.653-11.947-17.067v0 0c-1.707-1.707-5.12 0-8.533 0-8.533 0-13.653 5.12-17.067 13.653-8.533 20.48-20.48 29.013-44.373 29.013-27.307 0-47.787-15.36-56.32-46.080h87.040c10.24 0 17.067-8.533 17.067-18.773s-6.827-18.773-17.067-18.773h-92.16c0-5.12 0-5.12 0-8.533 0-1.707 0-6.827 0-10.24h76.8c10.24 0 15.36-8.533 15.36-17.067 0-10.24-5.12-17.067-15.36-17.067h-73.387c8.533-30.72 27.307-44.373 56.32-44.373 25.6 0 35.84 8.533 44.373 27.307v0 0c3.413 8.533 10.24 13.653 18.773 13.653 1.707 0 5.12 0 6.827-1.707 8.533-1.707 15.36-10.24 15.36-18.773s-1.707-11.947-1.707-13.653z" />
<glyph unicode="&#xe93b;" glyph-name="birth" d="M612.693 981.333v-404.48h404.48c1.707 223.573-180.907 404.48-404.48 404.48zM54.613 721.92v0c-3.413 5.12-11.947 8.533-20.48 8.533-17.067 0-29.013-13.653-29.013-29.013 0-8.533 3.413-15.36 8.533-20.48v0l174.080-174.080c22.187-109.227 117.76-191.147 235.52-191.147h356.693c131.413 0 238.933 105.813 238.933 238.933h-791.893l-172.373 167.253zM793.6 285.013c-90.453 0-163.84-73.387-163.84-163.84s73.387-163.84 163.84-163.84c90.453 0 163.84 73.387 163.84 163.84s-71.68 163.84-163.84 163.84zM793.6 17.066c-58.027 0-104.107 46.080-104.107 104.107s46.080 104.107 104.107 104.107 104.107-46.080 104.107-104.107-46.080-104.107-104.107-104.107zM378.88 285.013c-90.453 0-163.84-73.387-163.84-163.84s73.387-163.84 163.84-163.84 163.84 73.387 163.84 163.84-75.093 163.84-163.84 163.84zM378.88 17.066c-58.027 0-104.107 46.080-104.107 104.107s46.080 104.107 104.107 104.107 104.107-46.080 104.107-104.107-47.787-104.107-104.107-104.107z" />
<glyph unicode="&#xe93c;" glyph-name="birthday" d="M906.24 500.053h-30.72v180.907c0 17.067-13.653 30.72-30.72 30.72h-59.733c-17.067 0-30.72-13.653-30.72-30.72v-180.907h-180.907v180.907c0 17.067-13.653 30.72-30.72 30.72h-59.733c-17.067 0-30.72-13.653-30.72-30.72v-180.907h-179.2v180.907c0 17.067-13.653 30.72-30.72 30.72h-59.733c-17.067 0-30.72-13.653-30.72-30.72v-180.907h-30.72c-66.56 0-121.173-54.613-121.173-121.173v-121.173c0-17.067 13.653-30.72 30.72-30.72v-269.653h962.56v271.36c17.067 0 30.72 13.653 30.72 30.72v121.173c3.413 64.853-51.2 119.467-117.76 119.467zM936.96 17.066h-841.387v150.187c0 71.68 46.080 121.173 121.173 121.173s75.093-59.733 150.187-59.733 75.093 59.733 150.187 59.733v0c75.093 0 75.093-59.733 150.187-59.733s75.093 59.733 150.187 59.733c75.093 0 121.173-47.787 121.173-121.173l-1.707-150.187zM213.333 740.693c-23.893 1.707-42.667 20.48-42.667 44.373 0 29.013 44.373 75.093 44.373 75.093s44.373-46.080 44.373-75.093c0-23.893-18.773-44.373-42.667-44.373 49.493 1.707 88.747 40.96 88.747 90.453 0 59.733-90.453 150.187-90.453 150.187s-90.453-90.453-90.453-150.187c1.707-49.493 40.96-88.747 88.747-90.453zM513.707 740.693c-23.893 1.707-42.667 20.48-42.667 44.373 0 29.013 44.373 75.093 44.373 75.093s44.373-46.080 44.373-75.093c0-23.893-18.773-44.373-42.667-44.373 49.493 1.707 88.747 40.96 88.747 90.453 0 59.733-90.453 150.187-90.453 150.187s-88.747-90.453-88.747-150.187c0-49.493 39.253-88.747 87.040-90.453zM814.080 740.693c-23.893 1.707-42.667 20.48-42.667 44.373 0 29.013 44.373 75.093 44.373 75.093s44.373-46.080 44.373-75.093c0-23.893-18.773-44.373-42.667-44.373 49.493 1.707 88.747 40.96 88.747 90.453 0 59.733-90.453 150.187-90.453 150.187s-90.453-90.453-90.453-150.187c1.707-49.493 40.96-88.747 88.747-90.453z" />
<glyph unicode="&#xe93d;" glyph-name="bluetooth" d="M575.147 469.333l201.387 201.387c17.067 17.067 17.067 46.080 0 63.147l-233.813 233.813c-17.067 17.067-46.080 17.067-63.147 0-10.24-10.24-13.653-22.187-13.653-34.133v-354.987l-155.307 155.307c-17.067 17.067-46.080 17.067-63.147 0s-17.067-46.080 0-63.147v0l201.387-201.387-201.387-201.387c-17.067-17.067-17.067-46.080 0-63.147s46.080-17.067 63.147 0l155.307 155.307v-354.987c0-11.947 3.413-25.6 13.653-34.133 17.067-17.067 46.080-17.067 63.147 0v0 0l233.813 233.813c17.067 17.067 17.067 46.080 0 63.147l-201.387 201.387zM680.96 235.52l-124.587-124.587v250.88l124.587-126.293zM554.667 576.853v250.88l124.587-124.587-124.587-126.293z" />
<glyph unicode="&#xe93e;" glyph-name="book-download" d="M752.64 844.8c-88.747 0-172.373-23.893-240.64-66.56-68.267 42.667-151.893 66.56-240.64 66.56h-271.36v-607.573c0-30.72 23.893-54.613 52.907-54.613h216.747c49.493 0 93.867-8.533 134.827-25.6 30.72-11.947 83.627-51.2 83.627-51.2 10.24-6.827 13.653-10.24 22.187-10.24s11.947 1.707 22.187 10.24c0 0 52.907 39.253 83.627 51.2 40.96 17.067 87.040 25.6 134.827 25.6h216.747c30.72 0 52.907 25.6 52.907 54.613v607.573h-267.947zM663.893 541.013v151.893c0 17.067 13.653 30.72 30.72 30.72h121.173c17.067 0 30.72-13.653 30.72-30.72v-151.893h90.453l-151.893-148.48c-8.533-8.533-20.48-13.653-32.427-13.653s-25.6 5.12-32.427 13.653l-148.48 148.48h92.16zM90.453 723.626h240.64c17.067 0 30.72-13.653 30.72-30.72s-13.653-30.72-30.72-30.72h-240.64c-17.067 0-30.72 13.653-30.72 30.72 0 15.36 13.653 30.72 30.72 30.72zM90.453 602.453h240.64c17.067 0 30.72-13.653 30.72-30.72s-13.653-30.72-30.72-30.72h-240.64c-17.067 0-30.72 13.653-30.72 30.72s13.653 30.72 30.72 30.72zM90.453 481.28h121.173c17.067 0 30.72-13.653 30.72-30.72s-13.653-30.72-30.72-30.72h-121.173c-17.067 0-30.72 13.653-30.72 30.72s13.653 30.72 30.72 30.72zM964.267 271.36c0-17.067-13.653-30.72-30.72-30.72h-180.907c-59.733 0-109.227-10.24-158.72-30.72-22.187-10.24-64.853-34.133-64.853-34.133-5.12-3.413-11.947-5.12-17.067-5.12s-13.653 1.707-17.067 5.12c0 0-40.96 25.6-64.853 34.133-49.493 20.48-98.987 30.72-158.72 30.72h-180.907c-17.067 0-30.72 13.653-30.72 30.72v30.72h211.627c90.453 0 172.373-23.893 240.64-64.853 68.267 40.96 151.893 64.853 240.64 64.853h211.627v-30.72z" />
<glyph unicode="&#xe93f;" glyph-name="bookmark" d="M600.747 824.32c-47.787 0-87.040-37.547-90.453-83.627v0c-3.413 47.787-42.667 83.627-90.453 83.627h-47.787v11.947c0 32.427-27.307 59.733-59.733 59.733h-133.12c-32.427 0-59.733-27.307-59.733-59.733v-11.947h-119.467v-723.627c0-34.133 23.893-58.027 59.733-58.027h904.533c32.427 0 59.733 27.307 59.733 59.733v721.92h-423.253zM343.040 204.8l-97.28 83.627-97.28-83.627v633.173c0 17.067 13.653 30.72 30.72 30.72h133.12c17.067 0 30.72-13.653 30.72-30.72v-633.173z" />
<glyph unicode="&#xe940;" glyph-name="bookmark-smart" d="M600.747 824.32c-47.787 0-87.040-37.547-90.453-83.627v0c-3.413 47.787-42.667 83.627-90.453 83.627h-47.787v11.947c0 32.427-27.307 59.733-59.733 59.733h-133.12c-32.427 0-59.733-27.307-59.733-59.733v-11.947h-119.467v-723.627c0-34.133 23.893-58.027 59.733-58.027h904.533c32.427 0 59.733 27.307 59.733 59.733v721.92h-423.253zM343.040 204.8l-97.28 83.627-97.28-83.627v633.173c0 17.067 13.653 30.72 30.72 30.72h133.12c17.067 0 30.72-13.653 30.72-30.72v-633.173zM925.013 537.6l-191.147-242.347c0 0-22.187-30.72-52.907 3.413-29.013 29.013-105.813 121.173-105.813 121.173s-17.067 22.187 8.533 47.787c22.187 22.187 39.253 13.653 44.373 6.827 8.533-8.533 64.853-64.853 64.853-64.853s6.827-6.827 17.067 5.12l168.96 168.96c0 0 20.48 18.773 42.667-1.707 22.187-23.893 3.413-44.373 3.413-44.373z" />
<glyph unicode="&#xe941;" glyph-name="broadcast" d="M573.44 262.826c66.56-35.84 143.36-56.32 225.28-56.32s158.72 20.48 225.28 56.32l-646.827 650.24c-35.84-66.56-56.32-143.36-56.32-225.28 0-83.627 20.48-160.427 58.027-228.693v-92.16l-240.64-240.64h-104.107c-18.773 0-34.133-15.36-34.133-34.133v-68.267h752.64v68.267c0 18.773-15.36 34.133-34.133 34.133h-136.533l-117.76 117.76 17.067 17.067 92.16 1.707zM343.040 126.293l34.133 34.133 34.133-34.133h-68.267zM513.707 126.293h-35.84l-68.267 68.267 17.067 17.067 87.040-85.333zM856.747 674.133l-68.267 68.267-136.533-34.133 170.667-170.667 34.133 136.533z" />
<glyph unicode="&#xe942;" glyph-name="business-telephonie" d="M1024 860.16c0 66.56-54.613 121.173-121.173 121.173h-390.827c-283.307 0-512-228.693-512-512s228.693-512 512-512c283.307 0 512 228.693 512 512v390.827zM571.733 590.506c32.427 0 59.733-27.307 59.733-59.733s-27.307-59.733-59.733-59.733-59.733 27.307-59.733 59.733 25.6 59.733 59.733 59.733zM450.56 469.333c32.427 0 59.733-27.307 59.733-59.733s-27.307-59.733-59.733-59.733-59.733 27.307-59.733 59.733 27.307 59.733 59.733 59.733zM593.92 92.16c-37.547-39.253-180.907-1.707-322.56 139.947s-177.493 278.187-138.24 322.56c76.8 76.8 73.387 92.16 134.827 15.36 61.44-75.093 56.32-71.68-3.413-131.413-23.893-23.893 25.6-85.333 78.507-136.533 52.907-52.907 112.64-102.4 136.533-78.507 59.733 59.733 54.613 64.853 131.413 3.413 75.093-61.44 64.853-52.907-17.067-134.827zM875.52 527.36c-25.6-25.6-121.173-1.707-215.040 92.16s-117.76 186.027-92.16 215.040c51.2 51.2 49.493 61.44 88.747 10.24 40.96-51.2 37.547-47.787-1.707-87.040-15.36-15.36 17.067-56.32 52.907-92.16 34.133-34.133 75.093-68.267 90.453-52.907 39.253 39.253 37.547 42.667 87.040 1.707 51.2-37.547 44.373-32.427-10.24-87.040z" />
<glyph unicode="&#xe943;" glyph-name="buy" d="M964.267 602.453h-262.827v134.827c0 104.107-83.627 187.733-187.733 187.733s-187.733-85.333-187.733-187.733v-134.827h-266.24c-32.427 0-59.733-25.6-59.733-59.733 0-10.24 3.413-20.48 8.533-30.72l226.987-500.053h546.133l230.4 500.053c5.12 8.533 10.24 20.48 10.24 30.72 3.413 34.133-25.6 59.733-58.027 59.733zM414.72 737.28c0 25.6 10.24 51.2 29.013 69.973 20.48 20.48 44.373 29.013 69.973 29.013s51.2-10.24 69.973-29.013c20.48-20.48 29.013-44.373 29.013-69.973v-134.827h-199.68l1.707 134.827zM119.467 484.693h206.507l22.187-146.773h-158.72l-69.973 146.773zM296.96 102.4l-69.973 146.773h136.533l22.187-146.773h-88.747zM559.787 102.4h-93.867l-22.187 146.773h141.653l-25.6-146.773zM595.627 337.92h-158.72l-22.187 146.773h201.387l-20.48-146.773zM730.453 102.4h-88.747l23.893 146.773h136.533l-71.68-146.773zM837.973 337.92h-160.427l18.773 146.773h206.507l-64.853-146.773z" />
<glyph unicode="&#xe944;" glyph-name="buy-back-euro" d="M824.32 257.706h-131.413v69.973l-136.533-119.467-40.96-34.133c-11.947-10.24-11.947-25.6 0-35.84l40.96-34.133 136.533-119.467v68.267h131.413c37.547 0 66.56 30.72 66.56 66.56 0 11.947-3.413 22.187-10.24 34.133 0 1.707-56.32 104.107-56.32 104.107zM1010.347 413.013v0l-98.987 155.307-177.493-95.573 187.733-312.32 85.333 141.653c13.653 17.067 18.773 39.253 18.773 61.44-3.413 15.36-8.533 32.427-15.36 49.493zM68.267 291.84h119.467l63.147 116.053 59.733-32.427-39.253 172.373-11.947 51.2c-3.413 13.653-17.067 22.187-30.72 15.36l-49.493-17.067-167.253-61.44 59.733-32.427-61.44-112.64c0 0 0-1.707-1.707-1.707 0 0 0-1.707-1.707-1.707-17.067-32.427-5.12-71.68 27.307-90.453 11.947-5.12 23.893-5.12 34.133-5.12zM52.907 257.706l87.040-141.653c10.24-18.773 23.893-35.84 44.373-46.080 15.36-10.24 35.84-13.653 52.907-13.653h189.44v201.387h-373.76zM595.627 701.44l-58.027-34.133 168.96-54.613 49.493-15.36c13.653-5.12 27.307 3.413 30.72 17.067l10.24 51.2 32.427 174.080-58.027-34.133-66.56 109.227-1.707 1.707c0 0 0 1.707-1.707 1.707-18.773 30.72-59.733 40.96-92.16 22.187-11.947-6.827-18.773-13.653-23.893-23.893l-59.733-98.987 69.973-116.053zM566.613 950.613h-168.96c-22.187 0-40.96-5.12-61.44-15.36-15.36-10.24-29.013-22.187-39.253-37.547v0l-98.987-160.427 175.787-102.4 192.853 315.733zM612.693 365.226c1.707 3.413 1.707 6.827 1.707 10.24 0 10.24-8.533 17.067-17.067 20.48-3.413 1.707-5.12 1.707-8.533 1.707-10.24 0-17.067-5.12-20.48-13.653v0 0c-8.533-22.187-20.48-30.72-51.2-30.72-34.133 0-58.027 15.36-66.56 51.2h85.333c11.947 0 17.067 8.533 17.067 18.773s-6.827 20.48-17.067 20.48h-90.453c0 5.12 0 10.24 0 11.947 0 3.413 0 5.12 0 10.24h107.52c11.947 0 18.773 10.24 18.773 20.48 0 11.947-6.827 22.187-18.773 22.187h-100.693c10.24 37.547 34.133 54.613 64.853 54.613 27.307 0 40.96-10.24 51.2-34.133 3.413-10.24 11.947-13.653 20.48-13.653 3.413 0 6.827 0 10.24 1.707v0 1.707c10.24 3.413 13.653 11.947 13.653 20.48 0 3.413 0 6.827-1.707 11.947-15.36 39.253-46.080 58.027-93.867 58.027-29.013 0-54.613-8.533-73.387-27.307-17.067-17.067-29.013-40.96-35.84-69.973h-17.067c-11.947 0-18.773-11.947-18.773-22.187 0-11.947 8.533-20.48 18.773-20.48h13.653c0-6.827 0-6.827 0-10.24 0-1.707 0-8.533 0-11.947h-13.653c-11.947 0-18.773-10.24-18.773-20.48 0-11.947 8.533-18.773 18.773-18.773h15.36c5.12-27.307 15.36-49.493 34.133-68.267s44.373-27.307 76.8-27.307c49.493-5.12 78.507 13.653 95.573 52.907z" />
<glyph unicode="&#xe945;" glyph-name="buzz" d="M384 339.626h64.853v384h-256c-56.32 0-107.52-23.893-143.36-64.853h126.293c8.533 0 15.36-6.827 15.36-15.36s-6.827-15.36-15.36-15.36h-150.187c-11.947-18.773-18.773-40.96-22.187-64.853h141.653c8.533 0 15.36-6.827 15.36-15.36s-6.827-15.36-15.36-15.36h-145.067c0-22.187 3.413-44.373 10.24-64.853h165.547c8.533 0 15.36-6.827 15.36-15.36s-6.827-15.36-15.36-15.36h-150.187c32.427-58.027 95.573-95.573 165.547-95.573v0l90.453-360.107c3.413-13.653 17.067-23.893 30.72-23.893h126.293c20.48 0 35.84 18.773 30.72 39.253l-85.333 343.040zM928.427 628.053v320.853c0 17.067-13.653 32.427-32.427 32.427h-32.427l-143.36-143.36c-64.853-64.853-150.187-104.107-240.64-110.933v-387.413c90.453-6.827 175.787-46.080 240.64-110.933l143.36-143.36h32.427c17.067 0 32.427 13.653 32.427 32.427v320.853c52.907 0 95.573 42.667 95.573 95.573s-42.667 93.867-95.573 93.867z" />
<glyph unicode="&#xe946;" glyph-name="calculator" d="M752.64 981.333h-571.733v-933.547c0-49.493 40.96-90.453 90.453-90.453h571.733v933.547c0 49.493-40.96 90.453-90.453 90.453zM390.827 63.146c0-8.533-6.827-15.36-15.36-15.36h-90.453c-8.533 0-15.36 6.827-15.36 15.36v59.733c0 8.533 6.827 15.36 15.36 15.36h90.453c8.533 0 15.36-6.827 15.36-15.36v-59.733zM390.827 213.333c0-8.533-6.827-15.36-15.36-15.36h-90.453c-8.533 0-15.36 6.827-15.36 15.36v59.733c0 8.533 6.827 15.36 15.36 15.36h90.453c8.533 0 15.36-6.827 15.36-15.36v-59.733zM390.827 363.52c0-8.533-6.827-15.36-15.36-15.36h-90.453c-8.533 0-15.36 6.827-15.36 15.36v59.733c0 8.533 6.827 15.36 15.36 15.36h90.453c8.533 0 15.36-6.827 15.36-15.36v-59.733zM390.827 513.706c0-8.533-6.827-15.36-15.36-15.36h-90.453c-8.533 0-15.36 6.827-15.36 15.36v59.733c0 8.533 6.827 15.36 15.36 15.36h90.453c8.533 0 15.36-6.827 15.36-15.36v-59.733zM571.733 63.146c0-8.533-6.827-15.36-15.36-15.36h-90.453c-8.533 0-15.36 6.827-15.36 15.36v59.733c0 8.533 6.827 15.36 15.36 15.36h90.453c8.533 0 15.36-6.827 15.36-15.36v-59.733zM571.733 213.333c0-8.533-6.827-15.36-15.36-15.36h-90.453c-8.533 0-15.36 6.827-15.36 15.36v59.733c0 8.533 6.827 15.36 15.36 15.36h90.453c8.533 0 15.36-6.827 15.36-15.36v-59.733zM571.733 363.52c0-8.533-6.827-15.36-15.36-15.36h-90.453c-8.533 0-15.36 6.827-15.36 15.36v59.733c0 8.533 6.827 15.36 15.36 15.36h90.453c8.533 0 15.36-6.827 15.36-15.36v-59.733zM571.733 513.706c0-8.533-6.827-15.36-15.36-15.36h-90.453c-8.533 0-15.36 6.827-15.36 15.36v59.733c0 8.533 6.827 15.36 15.36 15.36h90.453c8.533 0 15.36-6.827 15.36-15.36v-59.733zM752.64 63.146c0-8.533-6.827-15.36-15.36-15.36h-90.453c-8.533 0-15.36 6.827-15.36 15.36v211.627c0 8.533 6.827 15.36 15.36 15.36h90.453c8.533 0 15.36-6.827 15.36-15.36v-211.627zM752.64 363.52c0-8.533-6.827-15.36-15.36-15.36h-90.453c-8.533 0-15.36 6.827-15.36 15.36v59.733c0 8.533 6.827 15.36 15.36 15.36h90.453c8.533 0 15.36-6.827 15.36-15.36v-59.733zM752.64 513.706c0-8.533-6.827-15.36-15.36-15.36h-90.453c-8.533 0-15.36 6.827-15.36 15.36v59.733c0 8.533 6.827 15.36 15.36 15.36h90.453c8.533 0 15.36-6.827 15.36-15.36v-59.733zM752.64 680.96c0-17.067-13.653-30.72-30.72-30.72h-421.547c-17.067 0-30.72 13.653-30.72 30.72v180.907c0 17.067 13.653 30.72 30.72 30.72h421.547c17.067 0 30.72-13.653 30.72-30.72v-180.907z" />
<glyph unicode="&#xe947;" glyph-name="calendar-30" d="M923.307 882.346h-131.413v49.493c0 27.307-22.187 49.493-49.493 49.493s-49.493-22.187-49.493-49.493v-165.547c0-27.307 22.187-49.493 49.493-49.493s49.493 22.187 49.493 49.493v66.56c20.48-15.36 32.427-39.253 32.427-66.56 0-46.080-37.547-81.92-81.92-81.92-46.080 0-81.92 37.547-81.92 81.92 0 27.307 13.653 51.2 32.427 66.56v49.493h-363.52v49.493c0 27.307-22.187 49.493-49.493 49.493s-49.493-22.187-49.493-49.493v-165.547c0-27.307 22.187-49.493 49.493-49.493s49.493 22.187 49.493 49.493v66.56c20.48-15.36 32.427-39.253 32.427-66.56 0-46.080-37.547-81.92-81.92-81.92-46.080 0-81.92 37.547-81.92 81.92 0 27.307 13.653 51.2 32.427 66.56v49.493h-230.4v-826.027c0-54.613 44.373-98.987 98.987-98.987h925.013v826.027c-1.707 54.613-46.080 98.987-100.693 98.987zM955.733 23.893h-843.093c-27.307 0-49.493 22.187-49.493 49.493 0 1.707 0 3.413 0 5.12v0 506.88h843.093c22.187 0 47.787-20.48 49.493-46.080v-515.413zM430.080 319.146v0c18.773 6.827 34.133 17.067 42.667 32.427 10.24 15.36 13.653 32.427 13.653 52.907 0 18.773-3.413 34.133-11.947 49.493-8.533 13.653-18.773 25.6-32.427 35.84s-27.307 17.067-44.373 22.187-32.427 6.827-49.493 6.827c-20.48 0-40.96-3.413-58.027-10.24s-32.427-17.067-44.373-29.013-22.187-27.307-29.013-44.373c-6.827-17.067-10.24-37.547-11.947-58.027h80.213c0 20.48 5.12 39.253 15.36 52.907s27.307 20.48 47.787 20.48c15.36 0 29.013-5.12 40.96-13.653 11.947-10.24 17.067-22.187 17.067-40.96 0-11.947-3.413-20.48-8.533-29.013-5.12-6.827-13.653-11.947-22.187-17.067-8.533-3.413-18.773-6.827-29.013-6.827s-20.48 0-29.013 0v-59.733c10.24 0 20.48 0 32.427-1.707 11.947 0 22.187-3.413 30.72-6.827 10.24-3.413 17.067-10.24 23.893-18.773s8.533-20.48 8.533-35.84c0-20.48-6.827-35.84-18.773-47.787-13.653-11.947-29.013-17.067-47.787-17.067-11.947 0-22.187 1.707-32.427 6.827-8.533 5.12-17.067 10.24-22.187 17.067s-10.24 15.36-13.653 25.6c-3.413 10.24-5.12 20.48-5.12 32.427h-80.213c0-23.893 3.413-46.080 10.24-63.147 6.827-18.773 17.067-34.133 30.72-47.787s29.013-22.187 49.493-29.013c18.773-6.827 40.96-10.24 63.147-10.24 20.48 0 39.253 3.413 58.027 8.533s34.133 15.36 49.493 25.6c13.653 11.947 25.6 25.6 34.133 42.667s11.947 35.84 11.947 58.027c0 23.893-6.827 44.373-18.773 61.44-10.24 18.773-27.307 30.72-51.2 35.84zM779.947 472.746c-13.653 17.067-29.013 29.013-47.787 35.84s-37.547 10.24-58.027 10.24c-20.48 0-39.253-3.413-56.32-10.24-18.773-6.827-34.133-18.773-47.787-35.84s-23.893-39.253-32.427-66.56-11.947-61.44-11.947-100.693c0-40.96 3.413-75.093 11.947-104.107 8.533-27.307 18.773-49.493 32.427-66.56s29.013-29.013 47.787-35.84c18.773-6.827 37.547-10.24 56.32-10.24 20.48 0 39.253 3.413 58.027 10.24s34.133 18.773 47.787 35.84 23.893 39.253 32.427 66.56 11.947 63.147 11.947 104.107-3.413 73.387-11.947 100.693c-8.533 27.307-18.773 49.493-32.427 66.56zM740.693 262.826c0-17.067-3.413-32.427-6.827-47.787s-10.24-29.013-20.48-39.253c-8.533-10.24-22.187-17.067-39.253-17.067s-29.013 5.12-37.547 17.067c-8.533 10.24-15.36 23.893-18.773 39.253s-6.827 32.427-6.827 47.787c0 17.067-1.707 30.72-1.707 42.667 0 6.827 0 15.36 0 25.6s1.707 20.48 1.707 30.72c1.707 10.24 3.413 20.48 5.12 32.427 3.413 10.24 6.827 20.48 11.947 27.307 5.12 8.533 10.24 15.36 18.773 20.48 6.827 5.12 17.067 6.827 27.307 6.827 11.947 0 20.48-3.413 29.013-6.827 8.533-5.12 13.653-11.947 18.773-20.48s8.533-17.067 11.947-27.307c1.707-10.24 5.12-20.48 5.12-32.427 1.707-10.24 1.707-20.48 1.707-30.72s0-18.773 0-25.6c1.707-11.947 1.707-25.6 0-42.667z" />
<glyph unicode="&#xe948;" glyph-name="calendar-day" d="M923.307 882.346h-131.413v49.493c0 27.307-22.187 49.493-49.493 49.493s-49.493-22.187-49.493-49.493v-165.547c0-27.307 22.187-49.493 49.493-49.493s49.493 22.187 49.493 49.493v66.56c20.48-15.36 32.427-39.253 32.427-66.56 0-46.080-37.547-81.92-81.92-81.92-46.080 0-81.92 37.547-81.92 81.92 0 27.307 13.653 51.2 32.427 66.56v49.493h-363.52v49.493c0 27.307-22.187 49.493-49.493 49.493s-49.493-22.187-49.493-49.493v-165.547c0-27.307 22.187-49.493 49.493-49.493s49.493 22.187 49.493 49.493v66.56c20.48-15.36 32.427-39.253 32.427-66.56 0-46.080-37.547-81.92-81.92-81.92-46.080 0-81.92 37.547-81.92 81.92 0 27.307 13.653 51.2 32.427 66.56v49.493h-230.4v-826.027c0-54.613 44.373-98.987 98.987-98.987h925.013v826.027c-1.707 54.613-46.080 98.987-100.693 98.987zM955.733 23.893h-843.093c-27.307 0-49.493 22.187-49.493 49.493 0 1.707 0 3.413 0 5.12v0 506.88h843.093c22.187 0 47.787-20.48 49.493-46.080v0-515.413z" />
<glyph unicode="&#xe949;" glyph-name="calendar-month" d="M923.307 882.346h-131.413v49.493c0 27.307-22.187 49.493-49.493 49.493s-49.493-22.187-49.493-49.493v-165.547c0-27.307 22.187-49.493 49.493-49.493s49.493 22.187 49.493 49.493v66.56c20.48-15.36 32.427-39.253 32.427-66.56 0-46.080-37.547-81.92-81.92-81.92-46.080 0-81.92 37.547-81.92 81.92 0 27.307 13.653 51.2 32.427 66.56v49.493h-363.52v49.493c0 27.307-22.187 49.493-49.493 49.493s-49.493-22.187-49.493-49.493v-165.547c0-27.307 22.187-49.493 49.493-49.493s49.493 22.187 49.493 49.493v66.56c20.48-15.36 32.427-39.253 32.427-66.56 0-46.080-37.547-81.92-81.92-81.92-46.080 0-81.92 37.547-81.92 81.92 0 27.307 13.653 51.2 32.427 66.56v49.493h-230.4v-826.027c0-54.613 44.373-98.987 98.987-98.987h925.013v826.027c-1.707 54.613-46.080 98.987-100.693 98.987zM262.827 23.893h-148.48c-27.307 0-49.493 22.187-49.493 49.493v114.347h197.973v-163.84zM262.827 221.866h-197.973v165.547h197.973v-165.547zM262.827 419.84h-197.973v165.547h197.973v-165.547zM757.76 585.386h148.48c27.307 0 49.493-22.187 49.493-49.493v-116.053h-197.973v165.547zM757.76 387.413h197.973v-165.547h-197.973v165.547zM493.227 23.893h-197.973v163.84h197.973v-163.84zM493.227 221.866h-197.973v165.547h197.973v-165.547zM493.227 419.84h-197.973v165.547h197.973v-165.547zM725.333 23.893h-197.973v163.84h197.973v-163.84zM725.333 221.866h-197.973v165.547h197.973v-165.547zM725.333 419.84h-197.973v165.547h197.973v-165.547z" />
<glyph unicode="&#xe94a;" glyph-name="calendar-week" d="M923.307 882.346h-131.413v49.493c0 27.307-22.187 49.493-49.493 49.493s-49.493-22.187-49.493-49.493v-165.547c0-27.307 22.187-49.493 49.493-49.493s49.493 22.187 49.493 49.493v66.56c20.48-15.36 32.427-39.253 32.427-66.56 0-46.080-37.547-81.92-81.92-81.92-46.080 0-81.92 37.547-81.92 81.92 0 27.307 13.653 51.2 32.427 66.56v49.493h-363.52v49.493c0 27.307-22.187 49.493-49.493 49.493s-49.493-22.187-49.493-49.493v-165.547c0-27.307 22.187-49.493 49.493-49.493s49.493 22.187 49.493 49.493v66.56c20.48-15.36 32.427-39.253 32.427-66.56 0-46.080-37.547-81.92-81.92-81.92-46.080 0-81.92 37.547-81.92 81.92 0 27.307 13.653 51.2 32.427 66.56v49.493h-230.4v-826.027c0-54.613 44.373-98.987 98.987-98.987h925.013v826.027c-1.707 54.613-46.080 98.987-100.693 98.987zM262.827 23.893h-148.48c-27.307 0-49.493 22.187-49.493 49.493 0 1.707 0 3.413 0 5.12v0 506.88h197.973v-561.493zM493.227 23.893h-197.973v561.493h197.973v-561.493zM527.36 585.386h197.973v-561.493h-197.973v561.493zM955.733 23.893h-197.973v561.493h148.48c22.187 0 47.787-20.48 49.493-46.080v0-515.413z" />
<glyph unicode="&#xe94b;" glyph-name="call" d="M930.133 237.226c-143.36 114.347-134.827 107.52-247.467-6.827-46.080-46.080-160.427 49.493-259.413 148.48s-192.853 213.333-148.48 259.413c114.347 114.347 121.173 104.107 6.827 247.467s-110.933 117.76-254.293-29.013c-75.093-81.92-3.413-343.040 262.827-609.28s534.187-336.213 609.28-262.827c153.6 151.893 165.547 143.36 30.72 252.587z" />
<glyph unicode="&#xe94c;" glyph-name="call-forward" d="M1024 860.16c0 66.56-54.613 121.173-121.173 121.173h-390.827c-283.307 0-512-228.693-512-512s228.693-512 512-512c283.307 0 512 228.693 512 512v390.827zM670.72 122.88c-42.667-42.667-197.973-1.707-351.573 151.893-153.6 155.307-194.56 305.493-151.893 353.28 83.627 83.627 80.213 100.693 146.773 17.067 66.56-81.92 61.44-76.8-3.413-143.36-25.6-25.6 29.013-92.16 85.333-150.187s122.88-112.64 148.48-85.333c64.853 64.853 59.733 69.973 143.36 3.413 81.92-64.853 71.68-56.32-17.067-146.773zM901.12 575.146l-71.68 71.68-104.107-102.4c-17.067-17.067-44.373-18.773-63.147-1.707l-81.92 80.213c-15.36 17.067-15.36 44.373 1.707 61.44l104.107 102.4-71.68 71.68h235.52c15.36 0 27.307-3.413 37.547-13.653s13.653-23.893 13.653-37.547v-232.107z" />
<glyph unicode="&#xe94d;" glyph-name="call-log" d="M902.827 981.333h-390.827c-283.307 0-512-228.693-512-512s228.693-512 512-512c283.307 0 512 228.693 512 512v390.827c0 66.56-54.613 121.173-121.173 121.173zM551.253 732.16l85.333 85.333-42.667 42.667h215.040l-215.040-215.040-42.667 42.667c-11.947 13.653-11.947 32.427 0 44.373zM655.36 151.893c-37.547-39.253-180.907-1.707-322.56 139.947s-177.493 278.187-138.24 322.56c76.8 76.8 73.387 92.16 134.827 15.36 61.44-75.093 56.32-71.68-3.413-131.413-23.893-23.893 25.6-85.333 78.507-136.533 52.907-52.907 112.64-102.4 136.533-78.507 59.733 59.733 54.613 64.853 131.413 3.413 75.093-59.733 64.853-52.907-17.067-134.827zM894.293 732.16l-85.333-85.333 42.667-42.667h-215.040l215.040 215.040 42.667-42.667c11.947-13.653 11.947-32.427 0-44.373z" />
<glyph unicode="&#xe94e;" glyph-name="camera" d="M965.973 769.706h-694.613v46.080c0 25.6-18.773 46.080-46.080 46.080h-88.747c-25.6 0-46.080-20.48-46.080-46.080v-46.080h-90.453v-633.173c0-32.427 27.307-59.733 59.733-59.733h964.267v633.173c1.707 32.427-25.6 59.733-58.027 59.733zM273.067 619.52c0-17.067-13.653-30.72-30.72-30.72h-121.173c-17.067 0-30.72 13.653-30.72 30.72v30.72c0 17.067 13.653 30.72 30.72 30.72h119.467c17.067 0 30.72-13.653 30.72-30.72l1.707-30.72zM559.787 196.266c-124.587 0-225.28 100.693-225.28 225.28s100.693 225.28 225.28 225.28 225.28-98.987 225.28-223.573c0-124.587-102.4-226.987-225.28-226.987z" />
<glyph unicode="&#xe94f;" glyph-name="charger" d="M238.933 416.426c0 88.747 0 177.493 0 267.947 5.12 18.773 18.773 25.6 37.547 23.893 13.653 0 27.307 0 40.96 0 3.413 0 6.827 0 11.947 0 0 3.413 0 5.12 0 8.533 0 73.387 0 145.067 0 218.453 0 20.48 13.653 37.547 32.427 44.373 1.707 0 3.413 1.707 5.12 1.707 5.12 0 10.24 0 15.36 0 0 0 0 0 1.707 0 25.6-6.827 35.84-22.187 35.84-49.493 0-71.68 0-143.36 0-215.040 0-1.707 0-5.12 0-6.827 61.44 0 121.173 0 180.907 0 0 3.413 0 5.12 0 6.827 0 73.387 0 145.067 0 218.453 0 20.48 13.653 37.547 32.427 44.373 1.707 0 3.413 1.707 5.12 1.707 5.12 0 10.24 0 15.36 0 0 0 0 0 1.707 0 25.6-6.827 35.84-22.187 35.84-49.493 0-71.68 0-143.36 0-213.333 0-1.707 0-5.12 0-6.827 20.48 0 39.253 0 58.027 0 3.413 0 6.827 0 8.533 0 11.947-3.413 18.773-11.947 23.893-23.893 0-88.747 0-177.493 0-267.947-1.707-6.827-1.707-13.653-3.413-18.773-15.36-92.16-63.147-160.427-146.773-203.093-18.773-10.24-40.96-17.067-61.44-23.893 0-69.973 0-143.36 0-215.040-40.96 0-80.213 0-121.173 0 0 71.68 0 145.067 0 216.747 0 0 0 1.707-1.707 1.707s-5.12 1.707-6.827 1.707c-107.52 32.427-174.080 102.4-197.973 213.333 0 3.413-1.707 13.653-3.413 23.893zM452.267 257.706c1.707 0 1.707 0 0 0 59.733 68.267 119.467 136.533 179.2 208.213-35.84 0-68.267 0-102.4 0 13.653 49.493 27.307 98.987 42.667 146.773 0 0 0 0-1.707 0-59.733-68.267-117.76-138.24-179.2-208.213 35.84 0 68.267 0 102.4 0-11.947-47.787-27.307-97.28-40.96-146.773z" />
<glyph unicode="&#xe950;" d="M-8.533 981.333h1024v-1024h-1024v1024z" />
<glyph unicode="&#xe951;" d="M810.667 776.533l-409.6-409.6-153.6 153.6-102.4-102.4 256-256 512 512z" />
<glyph unicode="&#xe952;" d="M0 981.333h1024v-1024h-1024v1024z" />
<glyph unicode="&#xe953;" d="M133.12 541.013h757.76v-143.36h-757.76v143.36z" />
<glyph unicode="&#xe954;" glyph-name="check-your-balance" d="M448.853 534.186c-5.12-5.12-10.24-11.947-15.36-18.773-25.6-42.667-10.24-98.987 32.427-122.88 42.667-25.6 98.987-10.24 122.88 32.427 3.413 6.827 6.827 15.36 8.533 22.187v0l122.88 384-271.36-296.96zM512 981.333c-283.307 0-512-228.693-512-512s228.693-512 512-512c283.307 0 512 228.693 512 512s-228.693 512-512 512zM720.213 727.040l-92.16-288.427c-3.413-10.24-6.827-20.48-11.947-29.013-10.24-18.773-25.6-34.133-44.373-44.373s-39.253-15.36-59.733-15.36-42.667 5.12-59.733 15.36c-58.027 32.427-76.8 107.52-44.373 163.84 5.12 8.533 11.947 17.067 18.773 23.893l206.507 223.573c-37.547 15.36-78.507 22.187-121.173 22.187-182.613 0-331.093-148.48-331.093-331.093 0-15.36 1.707-29.013 3.413-44.373l-83.627-47.787c-6.827 30.72-10.24 59.733-10.24 92.16 0 56.32 11.947 112.64 32.427 163.84 20.48 49.493 51.2 95.573 90.453 134.827s83.627 69.973 134.827 90.453c51.2 22.187 107.52 32.427 163.84 32.427s112.64-11.947 163.84-32.427c49.493-20.48 95.573-51.2 134.827-90.453 18.773-18.773 35.84-39.253 51.2-61.44l-78.507-46.080c-18.773 25.6-39.253 47.787-63.147 68.267zM839.68 424.96c1.707 13.653 3.413 29.013 3.413 44.373 0 49.493-10.24 97.28-30.72 138.24l78.507 46.080c3.413-6.827 6.827-13.653 8.533-20.48 22.187-51.2 32.427-107.52 32.427-163.84 0-30.72-3.413-61.44-10.24-92.16l-81.92 47.787z" />
<glyph unicode="&#xe955;" glyph-name="child-protection" d="M512 597.333c105.813 0 192.853 85.333 192.853 191.147s-85.333 192.853-192.853 192.853-192.853-85.333-192.853-191.147c0-107.52 87.040-192.853 192.853-192.853zM665.6 612.693c-40.96-35.84-95.573-58.027-153.6-58.027-59.733 0-112.64 22.187-153.6 58.027-73.387-39.253-124.587-117.76-124.587-206.507v-170.667c0-155.307 124.587-278.187 278.187-278.187s278.187 124.587 278.187 276.48v170.667c0 90.453-51.2 167.253-124.587 208.213zM453.973 467.626c42.667 0 76.8-34.133 76.8-76.8s-34.133-76.8-76.8-76.8-76.8 34.133-76.8 76.8 34.133 76.8 76.8 76.8zM571.733 157.013c0-63.147-51.2-116.053-116.053-116.053-63.147 0-116.053 51.2-116.053 116.053v71.68c0 35.84 18.773 68.267 49.493 85.333 17.067-15.36 40.96-23.893 64.853-23.893 25.6 0 47.787 8.533 66.56 23.893 30.72-17.067 49.493-49.493 49.493-85.333v-71.68h1.707z" />
<glyph unicode="&#xe956;" glyph-name="cineday-silhouette" d="M163.84 590.506l583.68 157.013 92.16 25.6 155.307 40.96 5.12 1.707-8.533 32.427c-18.773 71.68-92.16 112.64-160.427 93.867l-831.147-225.28 32.427-126.293v-462.507c0-73.387 58.027-133.12 133.12-133.12h858.453v593.92l-860.16 1.707zM868.693 916.48l90.453-78.507-128-34.133-90.453 78.507 128 34.133zM612.693 848.213l90.453-78.507-128-34.133-90.453 78.507 128 34.133zM356.693 779.946l90.453-78.507-128-34.133-90.453 78.507 128 34.133zM102.4 709.973l90.453-78.507-128-34.133-25.6 95.573 63.147 17.067zM131.413 459.093h-66.56v98.987h133.12l-66.56-98.987zM262.827 459.093l66.56 98.987h131.413l-66.56-98.987h-131.413zM616.107 105.813l-87.040 46.080-87.040-47.787 23.893 95.573-71.68 63.147 95.573 15.36 39.253 81.92 39.253-81.92 95.573-15.36-71.68-63.147 23.893-93.867zM658.773 459.093h-133.12l66.56 98.987h133.12l-66.56-98.987zM923.307 459.093h-133.12l66.56 98.987h133.12l-66.56-98.987z" />
<glyph unicode="&#xe957;" glyph-name="clock" d="M512 981.333c-283.307 0-512-228.693-512-512s228.693-512 512-512c283.307 0 512 228.693 512 512s-228.693 512-512 512zM720.213 305.493c-8.533-8.533-20.48-13.653-32.427-13.653s-23.893 5.12-32.427 13.653l-177.493 177.493c0 0 0 0 0 1.707v0c0 0 0 0 0 1.707v0c0 0 0 0 0 1.707v0c0 0 0 0 0 1.707v0c0 0 0 0 0 1.707v0c0 0 0 0 0 1.707 0 0 0 0 0 1.707 0 0 0 0 0 1.707 0 0 0 0 0 1.707 0 0 0 0 0 1.707 0 0 0 0 0 1.707v0 5.12c0 0 0 0 0 1.707v1.707c0 0 0 0 0 1.707 0 0 0 0 0 1.707v332.8c0 25.6 20.48 44.373 44.373 44.373 25.6 0 44.373-20.48 44.373-44.373v-312.32l163.84-163.84c6.827-18.773 6.827-46.080-10.24-64.853z" />
<glyph unicode="&#xe958;" glyph-name="cloud-backup" d="M955.733 430.080c5.12 22.187 6.827 46.080 6.827 69.973 0 182.613-148.48 331.093-331.093 331.093-104.107 0-197.973-47.787-257.707-122.88-10.24 1.707-18.773 1.707-27.307 1.707-69.973 0-128-54.613-134.827-121.173-119.467-15.36-211.627-116.053-211.627-240.64 0-133.12 109.227-240.64 240.64-240.64h602.453c100.693 0 180.907 80.213 180.907 180.907 0 56.32-27.307 109.227-68.267 141.653zM633.173 409.6v-180.907c0-17.067-13.653-30.72-30.72-30.72h-121.173c-17.067 0-30.72 13.653-30.72 30.72v180.907h-121.173l189.44 189.44c11.947 11.947 30.72 11.947 42.667 0l191.147-189.44h-119.467z" />
<glyph unicode="&#xe959;" glyph-name="comic" d="M498.347 814.080c-3.413 35.84-49.493 0-49.493 0l1.707-61.44c0 0 51.2 25.6 47.787 61.44zM580.267 727.040c18.773-5.12 39.253 8.533 44.373 30.72s-5.12 44.373-23.893 49.493-39.253-8.533-44.373-30.72c-6.827-22.187 5.12-44.373 23.893-49.493zM662.187 981.333c-199.68 0-361.813-104.107-361.813-233.813 0-23.893 5.12-47.787 15.36-68.267h-315.733v-571.733c0-83.627 66.56-150.187 150.187-150.187h752.64v617.813c73.387 42.667 121.173 104.107 121.173 174.080 0 128-162.133 232.107-361.813 232.107zM271.36 17.066h-119.467c-49.493 0-90.453 40.96-90.453 90.453v512h209.92v-602.453zM535.893 856.746c3.413-10.24 5.12-18.773 5.12-27.307 18.773 20.48 44.373 30.72 68.267 22.187 10.24-3.413 20.48-8.533 29.013-17.067l-1.707 8.533 40.96 30.72 17.067-148.48 3.413 1.707 8.533 150.187 54.613 13.653 23.893-133.12h3.413l5.12 128 46.080 1.707-35.84-182.613-32.427-1.707-35.84 93.867-20.48-119.467-37.547-10.24-20.48 88.747v-1.707c-11.947-44.373-51.2-71.68-88.747-61.44-34.133 10.24-54.613 46.080-49.493 87.040-27.307-32.427-68.267-51.2-68.267-51.2l1.707-61.44-32.427-1.707-6.827 117.76-8.533-1.707c0 0-11.947 47.787-11.947 49.493 0-5.12 122.88 71.68 143.36 25.6zM843.093 17.066h-481.28v209.92h481.28v-209.92zM843.093 319.146h-481.28v300.373c54.613-52.907 139.947-90.453 240.64-100.693l-32.427-129.707 238.933 146.773c11.947 3.413 22.187 6.827 32.427 10.24l1.707-226.987zM901.12 858.453l-6.827-146.773-25.6-5.12-13.653 139.947 46.080 11.947zM887.467 650.24c-11.947-6.827-25.6-5.12-30.72 5.12-5.12 8.533 1.707 22.187 13.653 29.013s25.6 5.12 30.72-5.12c5.12-10.24-1.707-22.187-13.653-29.013z" />
<glyph unicode="&#xe95a;" glyph-name="comments" d="M512 965.973c-283.307 0-512-182.613-512-406.187 0-174.080 138.24-322.56 331.093-380.587v-206.507l180.907 180.907c283.307 0 512 182.613 512 406.187s-228.693 406.187-512 406.187zM445.44 440.32c-15.36-15.36-34.133-22.187-58.027-22.187-25.6 0-44.373 10.24-61.44 29.013-17.067 20.48-25.6 47.787-25.6 85.333 0 32.427 6.827 64.853 22.187 93.867s30.72 52.907 52.907 69.973c22.187 17.067 39.253 27.307 56.32 27.307 11.947 0 20.48-3.413 25.6-10.24 6.827-6.827 10.24-15.36 10.24-25.6 0-15.36-6.827-27.307-20.48-32.427-18.773-10.24-30.72-22.187-42.667-34.133-10.24-13.653-17.067-29.013-18.773-49.493h6.827c20.48 0 35.84-6.827 52.907-22.187 15.36-15.36 23.893-32.427 23.893-54.613 0-20.48-8.533-39.253-23.893-54.613zM669.013 440.32c-15.36-15.36-34.133-22.187-58.027-22.187-25.6 0-46.080 10.24-63.147 29.013-17.067 20.48-25.6 47.787-25.6 85.333 0 27.307 5.12 51.2 13.653 75.093s20.48 42.667 32.427 59.733c13.653 17.067 29.013 30.72 42.667 40.96 15.36 10.24 29.013 15.36 40.96 15.36s20.48-3.413 27.307-10.24c6.827-6.827 8.533-15.36 8.533-25.6 0-15.36-6.827-27.307-20.48-32.427-18.773-10.24-32.427-22.187-42.667-34.133-10.24-13.653-15.36-29.013-17.067-49.493h6.827c18.773 0 35.84-6.827 51.2-22.187s23.893-32.427 23.893-54.613c3.413-20.48-5.12-39.253-20.48-54.613z" />
</font>
</defs>
</svg>
